<?xml version="1.0" encoding="UTF-8" standalone="no"?><!DOCTYPE svg PUBLIC "-//W3C//DTD SVG 1.1//EN" "http://www.w3.org/Graphics/SVG/1.1/DTD/svg11.dtd"><svg width="100%" height="100%" viewBox="0 0 3200 3200" version="1.1" xmlns="http://www.w3.org/2000/svg" xmlns:xlink="http://www.w3.org/1999/xlink" xml:space="preserve" xmlns:serif="http://www.serif.com/" style="fill-rule:evenodd;clip-rule:evenodd;stroke-linejoin:round;stroke-miterlimit:2;"><g id="Background"><path d="M0,0c0,0 3200,-10.258 3200,0l0,3200l-3200,0l0,-3200Z"/><path d="M976.512,1935.889c-13.614,12.689 -16.937,12.503 -65.575,12.623c-18.906,0.047 -33.264,-2.207 -44.659,-21.465c-6.892,-11.648 -5.219,-15.939 -5.627,-91.109c-0.213,-39.249 0.752,-39.226 -0.137,-490.626c-0.049,-24.812 0.105,-101.834 0.199,-103.138c1.112,-15.469 11.077,-37.789 37.76,-40.19c5.982,-0.538 51.458,-0.723 59.079,0.849c5.474,1.129 30.871,9.237 30.865,42.48c-0.113,641.866 0.108,641.826 -0.05,656.24c-0.141,12.823 -1.191,22 -11.856,34.336Z" style="fill:#fefefe;"/><path d="M2223.405,1935.968c-3.932,-4.632 -7.726,-9.615 -10.162,-18.558c-2.5,-9.182 -1.258,-9.378 -1.571,-303.347c-0.032,-29.748 -0.389,-365.637 -0.109,-371.848c1.079,-23.984 19.054,-36.988 33.944,-39.478c6.134,-1.026 52.282,-0.387 55.99,-0.22c19.246,0.865 34.636,15.296 37.207,36.588c0.882,7.305 -0.283,486.403 0.247,624.959c0.145,37.951 2.682,55.115 -8.871,69.062c-13.282,16.034 -28.461,14.832 -44.145,14.945c-43.455,0.311 -48.544,1.051 -62.531,-12.101Z" style="fill:#fefefe;"/><path d="M2092.185,1609.529c-138.08,0.141 -1073.015,0.555 -1074.772,0.038c-5.074,-1.495 -4.642,-2.657 -4.725,-7.968c-0.071,-4.535 -0.832,-53.192 0.432,-56.698c1.575,-4.367 9.608,-3.353 19.689,-3.404c61.179,-0.309 563.503,-0.093 612.504,-0.072c433.58,0.187 534.44,-0.33 537.576,0.496c4.627,1.218 4.298,3.646 4.203,34.649c-0.088,28.669 0.112,29.352 -1.415,31.005c-1.911,2.069 -2.476,1.66 -84.112,1.741c-4.704,0.005 -4.64,0.106 -9.38,0.214Z" style="fill:#fdfdfd;"/><path d="M2362.309,1751.559c0.455,-21.913 0.044,-21.868 0.037,-43.749c-0.022,-122.917 -0.044,-245.835 -0.066,-368.752c-0.008,-3.405 -0.067,-27.826 20.672,-37.211c4.101,-1.856 11.504,-5.205 56.127,-3.938c37.967,1.078 37.856,34.991 37.92,38.022c0.021,0.994 0.285,185.064 0.269,190.633c-0.74,264.531 0.164,264.505 -0.184,287.502c-0.445,29.37 -21.647,37.125 -31.671,38.34c-5.073,0.615 -45.558,0.411 -47.032,0.35c-24.597,-1.005 -33.204,-20.352 -35.12,-29.133c-1.229,-5.633 -0.85,-5.697 -0.952,-72.065Z" style="fill:#fefefe;"/><path d="M837.116,1392.188c-0.295,424.773 0.456,424.904 -1.095,431.268c-8.125,33.335 -39.567,29.008 -53.205,29.044c-20.529,0.054 -39.356,3.122 -52.079,-14.2c-9.44,-12.852 -7.624,-20.493 -7.783,-83.61c-0.116,-46.25 -0.056,-346.222 -0.234,-415.622c-0.02,-7.884 0.236,-20.928 12.396,-32.157c10.204,-9.423 16.176,-9.945 60.208,-9.343c14.176,0.194 25.318,1.904 35.259,15.91c7.87,11.089 6.509,15.003 6.533,78.711Z" style="fill:#fefefe;"/><path d="M597.254,1414.073c0.026,-8.857 -0.148,-8.812 0.185,-12.602c1.274,-14.496 11.091,-24.316 19.967,-27.45c3.762,-1.328 8.552,-3.019 49.835,-1.751c22.821,0.701 31.402,17.025 31.721,32.408c0.363,17.497 0.217,17.456 0.164,218.76c-0.032,123.018 0.371,123.062 -0.54,128.15c-4.769,26.638 -31.032,26.927 -34.537,26.966c-35.177,0.387 -37.639,-0.032 -40.862,-0.581c-19.316,-3.287 -24.582,-20.426 -25.542,-26.278c-0.75,-4.573 -0.084,-222.407 -0.393,-337.621Z" style="fill:#fefefe;"/><path d="M2532.872,1371.656c34.475,-0.292 42.305,-0.053 46.988,1.136c3.418,0.867 11.366,4.112 15.468,10.008c7.952,11.429 7.206,12.347 7.062,59.389c-0.887,289.453 1.046,289.417 0.167,306.298c-0.64,12.287 -8.516,20.522 -10.303,21.899c-9.788,7.546 -14.972,8.158 -28.18,8.079c-30.236,-0.181 -35.793,0.812 -43.479,-2.577c-22.559,-9.948 -20.096,-32.055 -20.074,-39.952c0.817,-304.798 -0.6,-304.777 0.045,-331.271c0.064,-2.643 0.503,-20.665 16.254,-28.779c8.729,-4.497 14.167,-4.019 16.052,-4.23Z" style="fill:#fefefe;"/><path d="M1548.41,1829.711c0.572,0.669 21.058,25.229 23.077,27.297c4.368,4.474 5.325,7.997 -0.945,8.143c-3.267,0.076 -3.235,-0.433 -40.851,-0.321c-17.318,0.051 -24.061,-0.585 -25.395,2.062c-1.602,3.178 -0.725,8.267 -0.815,62.795c-0.023,13.758 -4.138,12.507 -26.378,28.895c-14.122,10.406 -16.824,11.485 -67.058,47.96c-7.573,5.499 -7.593,5.566 -8.399,5.621c-3.62,0.248 -3.973,-0.529 -4.151,-4.172c-0.019,-0.385 0.021,-80.665 0.024,-87.68c0.024,-48.493 0.737,-48.602 -0.527,-52.617c-1.27,-4.036 -2.847,-3.349 -45.431,-3.415c-23.054,-0.036 -23.358,0.407 -24.488,-0.795c-2.207,-2.345 1.059,-5.972 1.408,-6.36c3.936,-4.372 39.526,-47.98 48.476,-58.354c19.451,-22.547 60.234,-72.657 68.037,-81.868c6.615,-7.808 8.98,-1.209 17.228,8.583c7.424,8.814 64.545,78.754 86.188,104.225Z" style="fill:#fefefe;"/><path d="M1799.879,1917.185c0.099,75.846 0.265,83.292 0.427,90.533c0.051,2.297 0.769,2.837 -1.307,3.86c-3.256,1.604 -3.54,0.989 -6.3,-1.386c-12.313,-10.592 -25.265,-17.638 -66.905,-48.172c-14.911,-10.934 -29.459,-18.799 -31.002,-25.983c-0.771,-3.593 -0.629,-64.505 -0.753,-65.627c-0.747,-6.762 -6.247,-6.239 -8.103,-6.271c-24.362,-0.426 -51.783,0.304 -56.284,0.424c-14.379,0.383 0.141,-11.793 4.73,-17.455c5.259,-6.488 5.545,-6.234 66.862,-80.181c3.167,-3.82 35.404,-42.697 39.432,-47.881c3.157,-4.063 2.681,-6.127 7.752,-4.957c2.926,0.676 8.139,10.326 61.193,72.963c3.452,4.076 55.52,66.798 58.65,70.032c1.742,1.799 2.591,1.228 2.968,3.659c0.568,3.655 -0.148,4.292 -3.834,4.349c-2.767,0.042 -2.748,-0.626 -34.588,-0.482c-28.839,0.131 -31.7,-1.242 -32.709,5.442c-0.47,3.117 0.407,27.192 -0.228,47.132Z" style="fill:#fefefd;"/><path d="M2662.29,1614.06c0.009,62.412 1.226,65.347 -8.405,74.076c-6.663,6.039 -23.96,8.716 -26.72,3.735c-0.863,-1.558 -1.076,-1.696 -1.426,-112.18c-0.053,-16.819 -0.044,-118.136 0.113,-118.9c0.176,-0.858 1.099,-5.353 9.964,-4.55c6.952,0.63 14.053,2.009 20.428,9.696c8.112,9.78 6.096,16.558 6,57.505c-0.081,34.89 0.033,84.804 0.045,90.618Z" style="fill:#fdfdfd;"/><path d="M537.079,1548.438c-0.111,-68.252 -0.486,-68.482 2.047,-74.974c7.112,-18.228 28.992,-15.929 30.98,-15.14c3.827,1.52 3.546,5.853 3.615,30.737c0.469,167.702 0.137,181.132 -0.252,196.877c-0.169,6.843 -2.112,8.262 -12.633,7.293c-2.211,-0.204 -17.038,-1.569 -22.342,-16.461c-2.062,-5.79 -1.567,-5.975 -1.415,-128.333Z" style="fill:#fefefe;"/></g></svg>