<svg width="3200" height="3200" viewBox="0 0 3200 3200" fill="none" xmlns="http://www.w3.org/2000/svg">
<g clip-path="url(#clip0_0_1)">
<path fill-rule="evenodd" clip-rule="evenodd" d="M0 2.90871e-05C0 2.90871e-05 3200 -10.258 3200 2.90871e-05V3200H0V2.90871e-05Z" fill="black"/>
<path fill-rule="evenodd" clip-rule="evenodd" d="M976.512 1935.89C962.898 1948.58 959.575 1948.39 910.937 1948.51C892.031 1948.56 877.673 1946.3 866.278 1927.05C859.386 1915.4 861.059 1911.11 860.651 1835.94C860.438 1796.69 861.403 1796.71 860.514 1345.31C860.465 1320.5 860.619 1243.48 860.713 1242.17C861.825 1226.7 871.79 1204.39 898.473 1201.98C904.455 1201.45 949.931 1201.26 957.552 1202.83C963.026 1203.96 988.423 1212.07 988.417 1245.31C988.304 1887.18 988.525 1887.14 988.367 1901.55C988.226 1914.38 987.176 1923.55 976.511 1935.89H976.512Z" fill="#FEFEFE"/>
<path fill-rule="evenodd" clip-rule="evenodd" d="M2223.41 1935.97C2219.47 1931.34 2215.68 1926.35 2213.24 1917.41C2210.74 1908.23 2211.99 1908.03 2211.67 1614.06C2211.64 1584.31 2211.28 1248.43 2211.56 1242.21C2212.64 1218.23 2230.62 1205.23 2245.51 1202.74C2251.64 1201.71 2297.79 1202.35 2301.5 1202.52C2320.74 1203.38 2336.13 1217.81 2338.7 1239.1C2339.59 1246.41 2338.42 1725.51 2338.95 1864.06C2339.1 1902.01 2341.63 1919.18 2330.08 1933.13C2316.8 1949.16 2301.62 1947.96 2285.94 1948.07C2242.48 1948.38 2237.39 1949.12 2223.4 1935.97L2223.41 1935.97Z" fill="#FEFEFE"/>
<path fill-rule="evenodd" clip-rule="evenodd" d="M2092.18 1609.53C1954.1 1609.67 1019.17 1610.08 1017.41 1609.57C1012.34 1608.07 1012.77 1606.91 1012.69 1601.6C1012.62 1597.06 1011.86 1548.41 1013.12 1544.9C1014.69 1540.53 1022.73 1541.55 1032.81 1541.5C1093.99 1541.19 1596.31 1541.4 1645.31 1541.43C2078.89 1541.61 2179.75 1541.1 2182.89 1541.92C2187.52 1543.14 2187.19 1545.57 2187.09 1576.57C2187 1605.24 2187.2 1605.92 2185.68 1607.57C2183.77 1609.64 2183.2 1609.24 2101.56 1609.32C2096.86 1609.32 2096.92 1609.42 2092.18 1609.53Z" fill="#FDFDFD"/>
<path fill-rule="evenodd" clip-rule="evenodd" d="M2362.31 1751.56C2362.76 1729.65 2362.35 1729.69 2362.35 1707.81C2362.32 1584.89 2362.3 1461.97 2362.28 1339.06C2362.27 1335.65 2362.21 1311.23 2382.95 1301.85C2387.05 1299.99 2394.46 1296.64 2439.08 1297.91C2477.05 1298.99 2476.93 1332.9 2477 1335.93C2477.02 1336.92 2477.28 1520.99 2477.27 1526.56C2476.53 1791.09 2477.43 1791.07 2477.08 1814.07C2476.64 1843.44 2455.44 1851.19 2445.41 1852.41C2440.34 1853.02 2399.85 1852.82 2398.38 1852.76C2373.78 1851.75 2365.18 1832.4 2363.26 1823.62C2362.03 1817.99 2362.41 1817.93 2362.31 1751.56Z" fill="#FEFEFE"/>
<path fill-rule="evenodd" clip-rule="evenodd" d="M837.116 1392.19C836.821 1816.96 837.572 1817.09 836.021 1823.46C827.896 1856.79 796.454 1852.46 782.816 1852.5C762.287 1852.55 743.46 1855.62 730.737 1838.3C721.297 1825.45 723.113 1817.81 722.954 1754.69C722.838 1708.44 722.898 1408.47 722.72 1339.07C722.7 1331.18 722.956 1318.14 735.116 1306.91C745.32 1297.49 751.292 1296.97 795.324 1297.57C809.5 1297.76 820.642 1299.47 830.583 1313.48C838.453 1324.57 837.092 1328.48 837.116 1392.19Z" fill="#FEFEFE"/>
<path fill-rule="evenodd" clip-rule="evenodd" d="M597.254 1414.07C597.28 1405.22 597.106 1405.26 597.439 1401.47C598.713 1386.97 608.53 1377.15 617.406 1374.02C621.168 1372.69 625.958 1371 667.241 1372.27C690.062 1372.97 698.643 1389.29 698.962 1404.68C699.325 1422.17 699.179 1422.13 699.126 1623.44C699.094 1746.46 699.497 1746.5 698.586 1751.59C693.817 1778.23 667.554 1778.51 664.049 1778.55C628.872 1778.94 626.41 1778.52 623.187 1777.97C603.871 1774.69 598.605 1757.55 597.645 1751.69C596.895 1747.12 597.561 1529.29 597.252 1414.07L597.254 1414.07Z" fill="#FEFEFE"/>
<path fill-rule="evenodd" clip-rule="evenodd" d="M2532.87 1371.66C2567.35 1371.36 2575.18 1371.6 2579.86 1372.79C2583.28 1373.66 2591.23 1376.9 2595.33 1382.8C2603.28 1394.23 2602.53 1395.15 2602.39 1442.19C2601.5 1731.64 2603.44 1731.61 2602.56 1748.49C2601.92 1760.77 2594.04 1769.01 2592.25 1770.39C2582.47 1777.93 2577.28 1778.54 2564.07 1778.46C2533.84 1778.28 2528.28 1779.28 2520.59 1775.89C2498.04 1765.94 2500.5 1743.83 2500.52 1735.94C2501.34 1431.14 2499.92 1431.16 2500.57 1404.67C2500.63 1402.02 2501.07 1384 2516.82 1375.89C2525.55 1371.39 2530.99 1371.87 2532.87 1371.66Z" fill="#FEFEFE"/>
<path fill-rule="evenodd" clip-rule="evenodd" d="M1548.41 1829.71C1548.98 1830.38 1569.47 1854.94 1571.49 1857.01C1575.86 1861.48 1576.81 1865 1570.54 1865.15C1567.28 1865.23 1567.31 1864.72 1529.69 1864.83C1512.37 1864.88 1505.63 1864.24 1504.3 1866.89C1502.69 1870.07 1503.57 1875.16 1503.48 1929.69C1503.46 1943.44 1499.34 1942.19 1477.1 1958.58C1462.98 1968.99 1460.28 1970.07 1410.05 2006.54C1402.47 2012.04 1402.45 2012.11 1401.65 2012.16C1398.03 2012.41 1397.67 2011.63 1397.5 2007.99C1397.48 2007.61 1397.52 1927.33 1397.52 1920.31C1397.54 1871.82 1398.26 1871.71 1396.99 1867.69C1395.72 1863.66 1394.15 1864.35 1351.56 1864.28C1328.51 1864.24 1328.2 1864.69 1327.07 1863.48C1324.87 1861.14 1328.13 1857.51 1328.48 1857.12C1332.42 1852.75 1368.01 1809.14 1376.96 1798.77C1396.41 1776.22 1437.19 1726.11 1444.99 1716.9C1451.61 1709.09 1453.97 1715.69 1462.22 1725.48C1469.65 1734.3 1526.77 1804.24 1548.41 1829.71V1829.71Z" fill="#FEFEFE"/>
<path fill-rule="evenodd" clip-rule="evenodd" d="M1799.88 1917.19C1799.98 1993.03 1800.14 2000.48 1800.31 2007.72C1800.36 2010.01 1801.08 2010.55 1799 2011.58C1795.74 2013.18 1795.46 2012.57 1792.7 2010.19C1780.39 1999.6 1767.43 1992.55 1725.79 1962.02C1710.88 1951.09 1696.33 1943.22 1694.79 1936.04C1694.02 1932.44 1694.16 1871.53 1694.04 1870.41C1693.29 1863.65 1687.79 1864.17 1685.94 1864.14C1661.57 1863.71 1634.15 1864.44 1629.65 1864.56C1615.27 1864.95 1629.79 1852.77 1634.38 1847.11C1639.64 1840.62 1639.93 1840.87 1701.24 1766.93C1704.41 1763.11 1736.65 1724.23 1740.68 1719.05C1743.83 1714.98 1743.36 1712.92 1748.43 1714.09C1751.35 1714.76 1756.57 1724.41 1809.62 1787.05C1813.07 1791.13 1865.14 1853.85 1868.27 1857.08C1870.01 1858.88 1870.86 1858.31 1871.24 1860.74C1871.81 1864.4 1871.09 1865.04 1867.41 1865.09C1864.64 1865.13 1864.66 1864.47 1832.82 1864.61C1803.98 1864.74 1801.12 1863.37 1800.11 1870.05C1799.64 1873.17 1800.52 1897.24 1799.88 1917.18L1799.88 1917.19Z" fill="#FEFEFD"/>
<path fill-rule="evenodd" clip-rule="evenodd" d="M2662.29 1614.06C2662.3 1676.47 2663.52 1679.41 2653.89 1688.14C2647.22 1694.18 2629.93 1696.85 2627.17 1691.87C2626.3 1690.31 2626.09 1690.18 2625.74 1579.69C2625.69 1562.87 2625.7 1461.56 2625.85 1460.79C2626.03 1459.93 2626.95 1455.44 2635.82 1456.24C2642.77 1456.87 2649.87 1458.25 2656.24 1465.94C2664.36 1475.72 2662.34 1482.5 2662.24 1523.44C2662.16 1558.33 2662.28 1608.25 2662.29 1614.06Z" fill="#FDFDFD"/>
<path fill-rule="evenodd" clip-rule="evenodd" d="M537.079 1548.44C536.968 1480.19 536.593 1479.96 539.126 1473.46C546.238 1455.24 568.118 1457.54 570.106 1458.32C573.933 1459.84 573.652 1464.18 573.721 1489.06C574.19 1656.76 573.858 1670.19 573.469 1685.94C573.3 1692.78 571.357 1694.2 560.836 1693.23C558.625 1693.03 543.798 1691.66 538.494 1676.77C536.432 1670.98 536.927 1670.8 537.079 1548.44Z" fill="#FEFEFE"/>
</g>
<defs>
<clipPath id="clip0_0_1">
<rect width="3200" height="3200" rx="512" fill="white"/>
</clipPath>
</defs>
</svg>
