<?xml version="1.0" encoding="UTF-8" standalone="no"?><!DOCTYPE svg PUBLIC "-//W3C//DTD SVG 1.1//EN" "http://www.w3.org/Graphics/SVG/1.1/DTD/svg11.dtd"><svg width="100%" height="100%" viewBox="0 0 8492 16009" version="1.1" xmlns="http://www.w3.org/2000/svg" xmlns:xlink="http://www.w3.org/1999/xlink" xml:space="preserve" xmlns:serif="http://www.serif.com/" style="fill-rule:evenodd;clip-rule:evenodd;stroke-linejoin:round;stroke-miterlimit:2;"><g id="Artboard1"><g><path d="M4776.267,2136.267c-128.108,61.579 -123.283,73.854 -254.425,109.079c-227.967,61.217 -233.196,44.304 -312.796,24.775c-154.983,-38.021 -171.771,-38.196 -296.338,-104.287c-49.062,-26.042 -139.342,-64.133 -158.75,-142.05c-35.833,-143.958 -26.875,-221.129 -46.579,-244.912c-3.871,-4.671 -25.954,-17.779 -35.262,-34.254c-25.487,-45.192 -52.533,-137.242 -81.996,-227.187c-26.492,-80.938 -24.392,-94.288 -23.092,-102.604c7.204,-45.675 78.871,-50.883 86.233,-86.962c8.092,-39.617 -55.712,-218.575 36.162,-520.521c25.504,-83.783 58.037,-161.612 148.525,-266.842c227.221,-264.2 368.733,-226.738 493.854,-231.321c112.933,-4.133 279.896,-3.054 490.367,268.992c89.079,115.158 125.762,213.229 159.288,419.029c25.746,158.108 -14.512,299.008 -0.713,327.275c17.654,36.196 104.375,23.383 75.071,123.767c-63.158,216.425 -86.025,259.446 -97.171,280.4c-16.008,30.121 -36.613,25.867 -45.312,66.7c-10.763,50.625 -17.292,220.954 -61.738,278.612c-1.442,1.858 -25.121,27.5 -75.329,62.275l-0,0.037Z" style="fill:#211e21;"/><path d="M3891.371,2300.367c0.104,-15.679 -5.8,-70.642 23.558,-69.846c19.375,0.521 17.467,5.729 27.55,22.5c6.771,11.267 46.892,92.133 72.221,136.458c6.196,10.85 175.729,351.217 190.954,381.771c44.271,88.871 48.596,89.704 45.417,189.117c-0.45,14.133 -10.762,131.925 -12.379,135.571c-2.067,4.654 -19.167,16.667 -25.383,14.638c-7.621,-2.483 -23.558,-45.175 -34.271,-65.658c-27.012,-51.579 -47.867,-85.279 -156.129,-295.192c-68.35,-132.533 -69.221,-131.946 -87.971,-172.829c-23.213,-50.642 -34.862,-58.317 -43.558,-276.546l-0.017,0.017l0.008,0Z" style="fill:#211e21;"/><path d="M4380.433,2995c-0.313,-9.758 -3.004,-95.329 1.596,-121.946c8.75,-50.575 304.567,-625.85 318.075,-637.604c4.392,-3.821 23.263,-4.2 27.325,-0.883c12.587,10.258 13.887,223.108 -16.842,307.637c-20.467,56.304 -250.033,485.746 -252.45,489.929c-14.254,24.862 -28.75,69.775 -42.587,77.137c-6.529,3.471 -23.333,-10.471 -24.617,-13.487c-1.738,-4.096 -1.042,-4.096 -5.467,-49.133c-2.533,-25.867 -2.5,-25.537 -5.054,-51.65l0.021,0Z" style="fill:#211e21;"/><path d="M4207.55,2509.392c-23.717,-86.304 -35.642,-130.279 -22.917,-145.104c24.029,-27.987 40.154,0.104 199.217,-9.217c39.808,-2.342 86.946,-16.508 96.179,15.971c3.179,11.179 -18.613,124.133 -106.042,366.179c-31.442,87.033 -25.467,94.55 -43.021,97.588c-21.3,3.679 -17.571,-6.233 -23.958,-27.138c-22.95,-75.242 -71.217,-196.996 -99.463,-298.279l0.004,0Z" style="fill:#211e21;"/><path d="M4779.133,2823.596c26.371,40.987 37.637,69.633 9.775,92.083c-26.717,21.529 -135.921,31.563 -144.738,-7.708c-7.812,-34.825 52.412,-150.121 55.592,-152.675c13.263,-10.575 27.588,-2.658 29.671,-1.508c0.537,0.296 24.062,30.658 49.704,69.808l-0.004,0Z" style="fill:#211e21;"/><path d="M3825.192,2819.288c40.779,-56.667 38.662,-58.037 42.692,-62.571c10.85,-12.221 26.771,-4.721 28.871,-3.733c7.692,3.629 19.062,29.583 20.296,32.379c17.917,40.904 56.667,114.358 30.696,137.708c-17.812,16.008 -78.887,9.879 -85.762,9.183c-116.875,-11.737 -44.879,-100.329 -36.771,-112.967l-0.021,0Z" style="fill:#211e21;"/></g><g><path d="M4380.696,3341.875c2.967,-44.742 2.5,-90.262 20,-121.596c2.867,-5.137 7.654,-13.696 53.592,-50.383c309.792,-247.308 624.95,-121.633 756.754,-11.738c176.508,147.171 289.342,357.083 370.488,548.454c73.158,172.533 66.996,188.454 60.833,204.358c-15.696,40.554 -348.3,199.704 -409.321,226.7c-290.471,128.542 -395.608,140.696 -431.633,147.725c-26.042,5.088 -185.867,36.283 -328.679,-44.758c-99.967,-56.717 -92.829,-104.825 -93.421,-134.704c-8.125,-421.821 -0.329,-702.967 1.371,-764.079l0.017,0.017l0,0.004Z" style="fill:#211e21;"/><path d="M3740.296,4266.217c-288.333,-82.725 -595.888,-249.775 -663.596,-290.817c-36.096,-21.875 -91.908,-45.192 -94.008,-78.075c-2.467,-38.558 122.429,-391.633 313.367,-619.671c259.15,-309.513 611.113,-319.358 877.95,-107.517c68.471,54.358 65.904,62.067 72.45,171.771c11.075,185.537 3.992,666.717 2.5,729.375c-1.371,57.55 6.562,100.833 -61.283,148.925c-188.854,133.838 -443.75,46.946 -447.379,46.008Z" style="fill:#211e21;"/></g><g><path d="M5472.171,6975.538c13.733,49.167 9.046,49.704 17.587,100.017c7.446,43.942 57.796,268.471 50.279,675.971c-0.988,53.196 -6.075,328.992 -76.804,660.521c-86.129,403.663 -134.133,630.071 -333.717,1144.983c-66.146,170.658 -83.333,181.721 -87.95,503.7c-2.242,156.842 8.279,379.775 -7.5,404.221c-3.383,5.225 -24.775,38.367 -76.996,11.683c-22.742,-11.617 -40.137,-20.504 -68.054,-311.858c-78.438,-818.767 2.033,-1327.117 3.179,-1335.921c47.658,-370.712 142.446,-534.862 192.604,-675.575c63.629,-178.508 237.1,-766.492 303.317,-975.225c23.108,-72.812 59.117,-201.162 60.504,-202.012c0.85,-0.537 0.504,1.683 12.517,1.442c5.642,-0.121 5.017,-1.804 11.025,-1.925l0.017,-0.017l-0.008,-0.004Z" style="fill:#211e21;"/><path d="M3755.138,10112.55c-7.083,90.4 -29.792,292.933 -44.55,331.721c-17.846,46.892 -111.321,74.288 -113.821,-18.717c-3.333,-123.904 20.658,-579.95 -32.883,-728.108c-84.238,-233.142 -213.767,-493.317 -362.292,-1164.117c-97.362,-439.704 -100.4,-734.55 -101.058,-798.958c-5.017,-487.325 45.346,-578.438 55.071,-693.558c0.954,-11.304 1.596,-22.637 2.446,-33.942c0.258,-3.421 3.213,-42.117 26.475,-33.783c2.967,1.058 3.262,5.417 5.225,7.9c19.617,24.721 9.183,28.975 30.158,93.871c101.617,314.304 299.029,1019.446 388.037,1212.554c19.896,43.158 99.029,214.825 144.567,576.179c66.075,524.375 14.929,1101.825 6.475,1197.221c-0.363,4.133 -0.296,3.837 -3.871,51.754l0.017,-0.017l0.004,0Z" style="fill:#211e21;"/><path d="M5593.871,8099.671c-2.917,30.192 -5.904,29.637 -6.529,67.725c-4.375,264.967 54.583,363.663 20.296,990.033c-30.992,324.304 -78.679,436.337 -96.875,521.092c-53.262,248.333 -289.671,836.321 -310.625,851.683c-54.221,39.758 -59.775,-127.342 -60.175,-139.496c-4.238,-127.55 -6.146,-456.058 36.908,-643.662c80.104,-349.133 290.504,-1085.104 338.142,-1369.808c14.671,-87.725 19.496,-86.65 28.958,-174.846c1.388,-12.95 8.125,-91.387 19.117,-106.562c4.721,-6.529 11.058,-14.738 19.133,-14.792c1.233,0 -2.742,2.029 5.137,14.637c1.354,2.171 5.175,1.842 6.529,4.008l-0.017,-0.017l-0,0.004Z" style="fill:#211e21;"/><path d="M3036.267,8463.942c5.367,-52.238 4.096,-51.946 8.021,-104.704c17.742,-238.613 2.429,-239.029 6.092,-259.462c0.642,-3.646 5.8,-4.671 8.246,-7.429c2.467,-2.779 2.725,-8.629 6.408,-9.133c4.55,-0.625 8.925,3.283 12.117,6.579c8.421,8.663 16.804,89.183 17.621,97.033c1.162,11.113 8.992,86.404 19.513,138.3c119.342,588.404 165.658,673.925 342.204,1390.071c63.454,257.413 42.863,701.579 40.4,727.363c-11.617,121.283 -56.996,88.767 -62.292,82.413c-19.096,-22.867 -248.629,-594.079 -301.633,-828.629c-42.237,-186.946 -59.288,-183.542 -94.912,-487.188c-18.783,-226.979 -21.633,-414.825 -1.787,-745.208l0.004,-0.004Z" style="fill:#211e21;"/><path d="M3410,7439.617c-4.688,-18.492 -4.287,-18.35 -9.358,-36.946c-52.446,-191.842 -87.604,-458.196 -76.304,-467.171c2.742,-2.171 26.546,1.146 28.958,4.183c3.175,3.992 12.396,67.204 32.883,120.887c51.425,134.704 61.979,129.304 293.871,530.071c127.05,219.567 158.3,325.467 192.05,407.308c64.846,157.258 116.042,376.321 129.929,448.158c40.104,207.429 45.4,276.512 61.442,417.5c4.567,40.071 3.975,40.088 29.304,503.263c3.471,63.525 8.421,62.604 8.508,68.108c0.033,2.621 -5.746,1.908 -6.529,4.425c-1.804,5.867 1.042,12.467 -0.488,18.404c-0.521,1.996 -5.45,21.283 -22.758,12.117c-3.662,-1.946 -2.117,-8.092 -4.117,-11.737c-1.667,-3.038 -5.554,-4.688 -6.7,-7.967c-1.804,-5.158 -1.233,-10.867 -1.804,-16.3c-19.237,-183.837 -36.546,-254.983 -189.479,-677.779c-242.917,-671.546 -346.492,-906.996 -459.425,-1316.546l0.017,0.017l-0,0.004Z" style="fill:#211e21;"/><path d="M4540.954,9435.521c10.033,-121.425 12.621,-120.971 16.721,-242.812c1.408,-41.7 11.267,-335.658 41.771,-519.842c44.654,-269.688 41.908,-270.346 109.863,-505.713c65.121,-225.575 201.404,-502.446 285.833,-638.888c10.85,-17.533 80.225,-135.883 96.408,-160.883c35.158,-54.271 106.633,-185.625 115.521,-201.979c58.804,-108.075 59.183,-145.954 76.788,-214.062c6.562,-25.417 6.754,-39.012 29.896,-26.579c11.075,5.954 2.55,74.008 1.754,80.4c-69.567,555.883 -322.171,1129.896 -552.604,1769.863c-182.742,507.483 -157.933,514.408 -188.35,678.021l-15.262,-5.904c-6.113,-3.871 -12.242,-7.762 -18.35,-11.633l0.017,0.017l-0.004,-0.004Z" style="fill:#211e21;"/><path d="M4596.667,10095.279c1.042,-243.125 3.679,-329.254 19.738,-432.933c19.029,-122.846 20.746,-122.154 39.842,-244.792c27.242,-175 87.517,-408.004 94.342,-413.525c1.771,-1.442 15.712,-12.725 28.558,0.712c23.679,24.737 -9.008,648.558 -1.804,744.029c5.554,73.508 129.704,773.283 6.579,834.408c-64.325,31.929 -112.812,-56.283 -122.412,-71.042c-43.196,-95.887 -57.396,-183.454 -64.825,-416.858l-0.017,0Z" style="fill:#211e21;"/><path d="M4043.854,10060.8c-4.721,359.425 -60.883,442.379 -64.096,449.479c-78.196,132.446 -156.65,88.942 -171.683,-32.467c-30.467,-246.129 56.25,-661.371 56.633,-781.65c0.329,-101.508 -27.796,-674.775 -1.267,-693.783c22.275,-15.954 32.654,14.133 33.629,16.979c22.796,66.129 142.9,613.958 143.733,850.433c0.138,39.6 0.45,78.7 3.054,191.008l-0.004,0Z" style="fill:#211e21;"/></g><g><path d="M6306.354,4125.867c3.108,5.137 63.262,82.012 104.167,258.837c5.346,23.092 4.688,22.829 18.904,103.558c21.579,231.667 -2.779,272.1 28.35,484.529c3.404,23.263 51.2,261.217 -95.192,246.858c-177.154,-17.379 -535.696,-579.792 -576.579,-748.125c-24.479,-100.817 -56.337,-296.562 -43.783,-417.275c18.733,-180.154 86.892,-167.05 255.121,-134.913c144.529,27.604 208.992,89.704 223.158,103.367c49.012,47.221 79.95,94.654 85.85,103.196l0,-0.033l0.004,-0Z" style="fill:#211e21;"/><path d="M6242.971,5387.725c-10.642,-6.979 -21.667,-13.387 -32.308,-20.346c-57.571,-37.692 -180.658,-133.262 -304.95,-284.825c-55.467,-67.637 -85.488,-95.225 -97.292,-143.613c-24.496,-100.4 -17.242,-106.7 -10.417,-112.654c30.954,-26.946 68.992,58.229 163.317,183.975c153.383,204.496 211.667,266.962 353.75,356.754c3.783,2.396 46.65,29.479 23.508,50.867c-19.512,18.021 -77.292,-19.062 -95.608,-30.158Z" style="fill:#211e21;"/><path d="M2336.267,4123.975c8.35,-11.996 65.121,-93.592 123.887,-134.358c76.683,-53.196 306.338,-115.833 379.688,-76.858c68.246,36.267 85.85,234.463 14.671,557.379c-34.758,157.658 -393.471,725.225 -571.267,748.717c-138.558,18.3 -115.208,-169.008 -97.446,-278.525c32.604,-200.992 -4.688,-231.492 34.896,-503.283c29.967,-180.571 84.217,-263.783 115.571,-313.071Z" style="fill:#211e21;"/><path d="M2813.767,4986.667c-58.492,70.071 -230.45,300.225 -445.45,418.454c-81.683,44.912 -70.833,-9.529 -69.217,-14.967c8.629,-28.925 93.229,-20.746 307.1,-282.675c38.054,-46.596 195.921,-270.642 197.725,-272.275c17.917,-16.146 22.517,-21.788 39.254,-4.583c6.008,6.179 12.95,13.333 -8.838,107.5c-6.408,27.708 -17.55,42.5 -20.592,48.558l0.017,-0.017l0,0.004Z" style="fill:#211e21;"/></g><g><path d="M4489.2,12578.004c-15.592,-165 -15.471,-172.883 39.654,-450.017c9.896,-49.742 69.808,-317.379 86.112,-381.804c32.083,-126.821 28.212,-127.917 33.367,-138.038c0.938,-1.842 23.004,-28.125 33.733,-5.833c11.321,23.508 37.379,101.788 40.367,110.729c146.875,441.2 114.879,1089.654 111.683,1194.896c-11.338,374.567 -58.196,712.012 -69.983,781.042c-29.95,175.45 -25.713,178.438 -36.092,185.938c-22.692,16.408 -25.071,-27.692 -25.242,-30.883c-0.608,-11.442 -1.008,-22.883 -1.737,-34.321c-5.279,-82.967 -86.321,-454.342 -122.138,-659.479c-49.167,-281.717 -70.05,-408.175 -83.35,-520.904c-2.133,-17.117 -4.271,-34.238 -6.387,-51.354l0.017,0.033l-0.004,-0.004Z" style="fill:#211e21;"/><path d="M4152.45,12335.746c16.321,119.842 4.008,208.317 -18.733,380.362c-38.229,243.508 -62.917,401.267 -170.329,937.708c-42.188,210.696 -20.696,221.2 -34.062,223.613c-6.025,1.096 -10.867,-5.8 -15.608,-9.688c-10.867,-8.942 -13.246,-28.213 -14.929,-39.983c-28.333,-199.479 -37.242,-198.071 -56.492,-398.592c-50.575,-526.408 -41.129,-700.8 -39.375,-868.542c6.163,-584.221 103.925,-798.992 150.208,-952.658c2.379,-7.9 -0.088,-12.867 15.625,-13.888c28.383,-1.842 18.3,13.592 36.804,80.258c59.862,215.779 133.558,595.242 146.875,661.408l0.017,0Z" style="fill:#211e21;"/><path d="M3756.929,13307.429c18.333,200.554 19.271,201.996 96.65,518.629c11.233,45.954 101.7,315.471 10.521,277.396c-29.912,-12.483 -26.529,-69.792 -101.617,-432.325c-56.633,-273.454 -130.571,-797.725 -346.804,-1528.3c-63.596,-214.896 -111.217,-383.838 -108.629,-710.554c0.138,-18.092 8.525,-135.471 8.575,-135.625c0.467,-1.442 13.246,-17.95 23.908,-14.721c2.588,0.783 3.542,4.062 5.433,6.008c15.658,16.025 10.054,18.992 36.25,90.746c60.817,166.596 229.408,702.779 272.467,1025.938c35.867,269.15 37.517,268.662 66.65,538.492c3.142,29.117 29.15,269.913 36.579,364.325l0.017,0l0,-0.008Z" style="fill:#211e21;"/><path d="M4883.35,13359.046c2.238,-27.829 5.4,-66.962 34.946,-347.308c27.012,-256.162 29.408,-255.8 31.579,-278.075c15.208,-156.683 19.825,-155.779 39.463,-312.05c40.521,-322.517 216.354,-884.792 280.921,-1058.333c13.696,-36.842 24.425,-102.029 54.133,-73.629c13.454,12.867 6.908,15.729 10.279,73.558c22.188,380.538 -64.15,635.938 -112.363,799.879c-28.908,98.263 -182.467,620.383 -289.721,1247.188c-53.7,313.837 -65.488,311.354 -119.271,625.362c-1.008,5.833 -9.825,57.362 -31.963,66.737c-73.383,31.096 -22.188,-157.533 -18.575,-170.8c96.771,-356.475 110.121,-434.392 120.592,-572.517l-0.017,-0.017l-0.004,0.004Z" style="fill:#211e21;"/><path d="M3268.3,11732.292c30.762,100.433 14.183,113.958 80.071,340.783c209.496,721.146 199.287,808.992 224.842,938.071c4.512,22.763 59.342,368.212 64.429,400.242c39.479,248.646 51.842,285.867 59.808,309.825c7.363,22.117 81.442,244.912 78.592,280.538c-2.033,25.521 -25.992,17.533 -30.658,13.262c-4.408,-4.046 -107.483,-285.225 -146.008,-446.579c-17.658,-73.975 -60.921,-226.633 -80.033,-296.908c-15.658,-61.196 -15.783,-60.921 -33.317,-121.842c-39.983,-154.288 -73.717,-299.983 -194.237,-710.921c-24.863,-84.775 -28.367,-517.379 -47.238,-641.962c-3.158,-20.817 -1.875,-20.554 -2.796,-50.833c8.838,-4.55 17.692,-9.113 26.529,-13.663l0.017,-0.017l0,0.004Z" style="fill:#211e21;"/><path d="M5092.221,13375.85c-40.312,148.471 -37.554,148.958 -79.425,297.237c-21.008,74.375 -108.367,321.667 -110.696,327.171c-1.129,2.638 -12.9,30.417 -31.387,17.483c-22.604,-15.817 44.929,-213.125 60.471,-261.667c63.196,-197.275 37.846,-202.812 183.075,-1004.112c25.329,-139.758 170.017,-649.358 189.217,-712.133c39.029,-127.587 60.867,-303.421 71.146,-310.312c12.587,-8.438 13.558,-1.788 21.129,11.321c1.179,2.05 4.462,3.054 4.6,5.433c0.258,4.55 -2.95,8.7 -3.525,13.229c-1.058,8.454 1.042,8.438 -3.35,54.583c-23.404,246.492 -14.512,331.529 -28.958,486.946c-8.887,95.729 -4.079,96.65 -31.321,188.733c-112.779,381.371 -161.233,603.317 -240.988,886.096l0.017,0l-0.004,-0.008Z" style="fill:#211e21;"/><path d="M3933.038,10670.054c9.671,-1.771 1.892,-11.788 11.683,-13.575c0.987,-0.175 2.379,-0.433 7.342,10.087c2.258,4.792 1.404,10.988 4.583,15.208c2.133,2.846 7.742,1.179 9.879,4.029c-12.917,128.8 14.496,302.237 -7.292,450.675c-45.554,230.433 -52.117,228.837 -137.067,432.171c-33.837,81.008 -35.104,83.663 -51.513,191.129c-0.817,5.329 -0.192,11.129 -2.5,16.008c-1.425,2.988 -6.233,3.108 -7.917,5.938c-2.221,3.696 0.279,9.967 -3.175,12.55c-23.7,17.829 -26.738,-27.483 -8.992,-257.221c21.963,-284.287 152.483,-516.771 167.275,-764.408c0.746,-12.588 3.925,-78.35 4.254,-85.175c4.496,-5.8 8.975,-11.596 13.471,-17.413l-0.033,0l0,-0.004Z" style="fill:#211e21;"/><path d="M4694.167,10665.521c5.817,0.658 9.479,-9.304 15.296,-8.663c16.596,1.858 6.408,158.3 41.929,288.558c33.279,122.067 30.504,122.587 68.679,243.108c53.404,168.525 66.579,303.508 69.2,330.383c2.117,21.771 25.279,259.008 9.321,273.196c-2.867,2.554 -7.621,-1.042 -11.458,-1.163c-3.646,-0.121 -8.229,2.883 -10.921,0.433c-7.796,-7.1 -9.183,-100.833 -41.996,-185.121c-42.221,-108.471 -126.825,-241.858 -159.512,-520.921c-6.804,-128.438 -0.45,-154.6 3.908,-364.862l0.433,-34.654c5.033,-6.771 10.071,-13.525 15.104,-20.296l0.017,0Z" style="fill:#211e21;"/></g><g><path d="M3703.263,6154.846c-0.729,-9.758 -7.188,-96.804 2.429,-122.221c22.554,-59.633 190.225,-51.179 264.896,-5.729c187.675,114.217 193.367,155.642 200.571,197.779c18.592,108.646 31.754,1000.471 31.612,1006.179c-3.279,123.975 -98.904,149.983 -151.283,126.092c-67.9,-30.971 -133.246,-208.558 -140.658,-228.717c-56.979,-154.842 -129.567,-520.592 -129.983,-523.142c-41.717,-249.775 -61.025,-282.604 -77.588,-450.225l0,-0.017l0.004,0Z" style="fill:#211e21;"/><path d="M4831.096,6778.679c-40.954,182.604 -147.637,683.075 -324.529,571.442c-68.767,-43.404 -60,-80.85 -57.033,-327.604c1.058,-87.675 14.2,-726.283 28.229,-797.325c13.7,-69.358 38.387,-94.133 198.283,-196.821c73.125,-46.962 242.292,-55.713 266.617,3.054c16.738,40.4 7.379,130.383 -22.637,296.338c-22.221,122.883 -24.654,122.204 -52.483,277.675c-15.608,87.154 -18.525,86.321 -36.442,173.212l0,0.033l-0.004,-0.004Z" style="fill:#211e21;"/><path d="M4435.312,5737.846c-0.087,-12.5 -0.988,-129.896 0.762,-156.233c3.075,-46.113 -1.633,-127.9 155.471,-143.613c164.6,-16.442 307.5,59.446 331.458,72.171c101.754,54.046 68.783,263.367 58.925,299.271c-19.55,71.146 -77.604,56.425 -285.85,58.75c-88.404,0.988 -164.842,51.804 -207.829,62.238c-3.8,0.921 -33.542,8.142 -44.342,-20.713c-4.221,-11.283 -8.212,-158.108 -8.592,-171.875l-0.004,0.004Z" style="fill:#211e21;"/><path d="M4207.55,5876.579c-2.846,37.675 -0.4,71.492 -64.704,46.788c-102.967,-39.567 -118.821,-60.346 -262.621,-55.833c-181.321,5.696 -201.633,-13.542 -214.617,-58.471c-5.383,-18.629 -44.463,-240.729 57.933,-297.604c189.2,-105.088 443.783,-93.229 477.1,-2.571c19.617,53.367 11.529,246.946 6.892,367.692l0.017,0Z" style="fill:#211e21;"/><path d="M4765.417,5291.321c-134.008,-1.492 -133.662,0.696 -225.487,0.904c-48.854,0.104 -69.983,-0.488 -80.954,-41.858c-4.325,-16.338 -21.492,-126.425 -24.217,-154.775c-17.467,-181.787 -8.629,-208.142 1.25,-225.642c18.246,-32.325 259.029,-69.117 453.438,118.975c0.625,0.608 83.925,76.633 93.942,142.221c5.4,35.4 -12.258,135.121 -24.913,173.575c-0.642,1.963 -5.225,15.888 -18.992,17.637c-17.258,2.188 -16.321,-2.342 -37.692,-11.217c-32.258,-13.387 -125.367,-19.117 -136.354,-19.792l-0.017,-0.033l-0.004,0.004Z" style="fill:#211e21;"/><path d="M4206.892,5147.171c-16.579,115.817 -10.279,144.271 -83.592,145.312c-69.704,0.988 -295.921,-12.292 -378.992,19.479c-18.596,7.117 -17.9,11.458 -37.45,8.421c-20.071,-3.125 -20.071,-28.975 -24.792,-49.758c-33.75,-148.7 -21.579,-175.783 68.175,-270.225c188.075,-197.9 422.658,-154.304 441.321,-144.983c35.017,17.517 35.696,55.121 30.175,152.883c-1.683,29.721 -2.275,29.288 -14.863,138.888l0.017,-0.017Z" style="fill:#211e21;"/><path d="M4036.771,4715.954c-16.946,2.812 -144.967,24.096 -209.617,46.821c-100.833,35.45 -92.292,50.192 -133.925,97.9c-11.842,13.575 -16.562,11.042 -27.829,-3.142c-8.037,-10.121 -2.829,-11.596 5.4,-92.033c12.933,-126.475 7.258,-163.438 119.029,-264.271c156.425,-141.112 378.646,-124.742 405.992,-105.554c45.658,32.05 33.492,111.492 15.121,213.854c-3.125,17.429 -5.992,56.562 -30.658,76.529c-17.742,14.358 -94.342,22.846 -143.525,29.879l0.017,0.017l-0.004,-0Z" style="fill:#211e21;"/><path d="M4609.096,4715.713c-39.967,-5.367 -124.863,-15.938 -142.762,-31.617c-22.762,-19.95 -26.875,-61.475 -29.342,-74.95c-37.9,-206.529 6.283,-218.142 51.129,-222.846c258.821,-27.204 417.221,144.846 451.908,205.208c23.383,40.729 23.3,41.179 27.971,87.917c14.342,143.629 18.333,143.021 19.321,155.521c0.208,2.725 2.188,27.467 -14.288,31.058c-32.829,7.171 -11.892,-46.771 -123.142,-94.096c-66.683,-28.367 -221.267,-53.071 -240.8,-56.196l0.004,0Z" style="fill:#211e21;"/></g><g><path d="M6481.683,5599.567c-15.242,-69.079 -16.929,-79.842 -18.021,-86.858c-1.962,-12.571 -20.762,-133.038 -20.296,-157.812c0.054,-2.779 0.504,-27.083 22.188,-26.667c3.317,0.071 62.413,36.179 108.804,75.883c204.321,174.95 327.588,478.767 374.463,595.833c63.942,159.671 149.721,444.062 156.596,468.283c37.483,131.858 279.567,580.225 274.983,622.45c-0.137,1.283 -14.375,16.354 -25.154,13.092c-17.637,-5.329 -112.275,-219.375 -179.079,-340.138c-81.65,-147.587 -89.15,-142.467 -172.863,-260.433c-134.6,-189.671 -318.975,-413.175 -401.7,-624.95c-30.938,-79.183 -78.125,-103.367 -119.896,-278.679l-0.017,0l-0.008,-0.004Z" style="fill:#211e21;"/><path d="M1484.167,6727.308c-81.546,146.25 -179.183,364.6 -196.025,373.804c-2.883,1.579 -40.263,7.258 -21.217,-41.408c26.754,-68.333 181.267,-386.908 197.483,-420.346c104.513,-215.488 83.733,-275.279 234.013,-656.058c175.208,-443.975 360.537,-580.746 449.012,-639.062c2.342,-1.546 24.671,-16.267 31.529,-15.488c18.575,2.083 17.967,24.496 17.9,27.083c-0.033,1.337 -18.175,150.85 -26.404,189.425c-13.767,64.446 -22.396,109.567 -58.646,193.663c-34.096,79.133 -48.471,71.979 -78.487,152.933c-9.079,24.496 -39.862,107.55 -161.579,283.75c-11.179,16.179 -21.546,32.45 -35.192,51.737c-13.8,19.513 -11.338,21.092 -286.304,393.367c-21.458,29.062 -61.096,97.9 -66.096,106.596l0.017,0l-0.004,0.004Z" style="fill:#211e21;"/><path d="M6587.554,5998.783c3.054,6.042 38.196,75.658 0.467,84.6c-53.613,12.692 -175.833,-102.675 -330.45,-169.462c-59.046,-25.504 -92.275,-34.046 -96.529,-89.479c-1.492,-19.496 -12.483,-162.412 4.096,-244.287c17.708,-87.379 77.396,-10.85 166.042,85.554c43.717,47.55 94.446,111.304 119.567,140.679c78.054,91.233 127.292,176.075 136.771,192.413l0.033,-0.017l0.004,-0Z" style="fill:#211e21;"/><path d="M2197.517,6017.796c-30.088,18.629 -167.154,114.929 -164.167,32.258c3.004,-82.796 363.888,-501.925 405.208,-506.946c24.758,-3.004 32.033,19.029 33.021,22.05c6.408,19.446 8.525,24.375 11.338,155.312c0.017,1.096 -4.15,111.683 -6.283,122.033c-12.708,61.267 -56.146,30.642 -279.112,175.279l0,0.017l-0.004,-0.004Z" style="fill:#211e21;"/><path d="M7265.938,7126.217c-245.175,-328.646 -402.5,-461.546 -544.617,-654.513c-113.662,-154.358 -115.504,-152.867 -125.087,-166.492c-99.2,-141.146 -103.837,-137.779 -110.4,-151.25c-6.058,-12.429 -2.05,-42.204 30.575,-26.321c88.75,43.213 207.483,170.712 223.404,187.796c131.996,141.754 321.008,420.642 362.308,486.113c118.421,187.708 119.271,186.929 129.096,203.508c18.054,30.504 71.092,108.821 70.433,121.788c-0.367,7.221 -15.817,19.046 -18.696,17.725c-7.587,-3.454 -9.429,-14.879 -16.996,-18.333l-0.021,-0.021Z" style="fill:#211e21;"/><path d="M1361.963,7141.113c-7.275,-4.462 -29.704,3.092 -16.388,-31.721c1.442,-3.783 129.446,-213.887 269.375,-422.221c163.142,-242.883 375.362,-498.679 510.417,-558.229c14.133,-6.233 16.058,-11.058 27.05,-0.137c18.492,18.367 5.954,21.7 -10.258,41.858c-46.771,58.158 -44.062,59.929 -88.488,120.154c-15.833,21.475 -162.204,219.983 -201.025,265.992c-172.517,204.479 -227.779,242.154 -490.679,584.287l0,0.017l-0.004,0Z" style="fill:#211e21;"/><path d="M6398.896,6327.292c-74.046,-120.658 -105.042,-201.738 -102.837,-206.65c5.971,-13.367 12.171,-13.196 13.679,-13.158c12.083,0.313 77.779,117.55 214.5,285.921c43.263,53.283 255,363.383 575.625,622.587c23.908,19.342 90.729,61.65 147.379,144.304c-0.642,0.017 -17.483,15.608 -44.479,-6.737c-35.471,-29.342 -31.321,-34.046 -161.979,-132.133c-30.887,-23.196 -185.85,-157.758 -256.179,-229.533c-1.371,-1.387 -1.267,-1.3 -17.117,-17.467c-9.654,-9.704 -110.521,-105.538 -219.375,-233.004c-9.567,-11.217 -46.617,-54.583 -108.8,-148.679c-3.383,-5.137 -2.379,-5.642 -40.417,-65.45Z" style="fill:#211e21;"/><path d="M2294.008,6237.742c-138.471,245.033 -236.492,358.646 -469.288,586.7c-170.921,156.425 -213.108,188.196 -232.846,203.054c-80,60.258 -78.004,62.396 -156.546,124.721c-0.537,-10.121 -17.779,-14.133 -18.317,-24.254c-0.208,-3.804 68.696,-68.596 87.5,-84.671c38.229,-32.708 64.408,-45.017 150.938,-127.379c26.754,-25.45 28.838,-22.829 53.888,-50.312c15.592,-17.083 98.196,-80.783 266.217,-290.592c6.075,-7.587 43.071,-53.783 74.862,-95.779c101.667,-134.342 106.667,-130.313 203.575,-268.179c36.875,-52.467 62.571,-99.808 67.883,-102.308c17.363,-8.196 24.358,9.775 25.175,11.858c6.042,15.521 -49.533,110.346 -53.037,117.154l0,-0.017l-0.004,0.004Z" style="fill:#211e21;"/></g><g><path d="M1342.138,7664.342c-24.775,118.421 -31.562,148.663 -90.071,292.883c-47.221,96.008 -89.862,185.329 -198.487,118.992c-75.104,-45.867 -62.846,-94.2 -144.096,-165.938c-95.8,-84.567 -137.763,-87.033 -92.429,-179.633c120.783,-246.754 162.029,-245.017 251.579,-377.533c37.517,-55.538 74.896,-62.863 206.821,-32.654c70.071,16.042 68.179,47.604 69.425,222.95c0.433,60.658 3.783,60.488 -2.708,120.938l-0.033,0l0,-0.004Z" style="fill:#211e21;"/><path d="M7305.071,7698.629c-10.104,-59.842 -9.721,-59.738 -9.375,-120.488c1.267,-214.167 -6.613,-240.537 74.496,-258.679c129.533,-28.975 158.992,-30.017 218.004,55.488c46.129,66.842 128.283,139.462 230.154,343.421c48.125,96.371 17.171,104.721 -65.279,173.887c-73.575,61.717 -67.917,67.067 -96.562,114.512c-17.362,28.75 -71.162,85.433 -130.4,92.517c-83.092,9.929 -126.858,-118.508 -169.913,-227.363c-28.821,-80.258 -47.742,-159.254 -51.113,-173.317l-0.017,0.017l0.004,0.004Z" style="fill:#211e21;"/><path d="M7868.821,7412.05c176.546,94.183 178.196,112.654 232.95,143.783c129.2,73.454 232.483,106.633 201.112,158.733c-22.725,37.742 -197.467,64.133 -364.617,-78.629c-65.175,-55.675 -305.833,-228.3 -286.579,-282.467c20.279,-57.012 95.938,-10.279 102.967,-5.954c27.9,17.242 28.075,16.562 114.183,64.529l-0.017,0l0,0.004Z" style="fill:#211e21;"/><path d="M742.813,7429.913c187.171,-103.613 201.387,-125.696 236.546,-93.229c58.871,54.358 -180.85,216.804 -273.837,296.667c-98.471,84.583 -174.375,101.908 -263.438,111.163c-8.454,-0.087 -82.762,-0.938 -101.721,-28.783c-2.117,-3.108 -18.387,-26.996 1.892,-46.979c42.45,-41.821 114.638,-52.5 272.033,-163.038c35.45,-24.896 87.154,-52.533 128.525,-75.8Z" style="fill:#211e21;"/><path d="M7964.95,8633.213c-53.454,-97.346 -175.208,-407.292 -183.038,-428.613c-34.879,-94.967 -67.171,-135.521 -27.604,-190.625c2.363,-3.283 26.146,-36.425 47.588,-17.1c19.392,17.467 198.679,443.508 228.629,553.213c16.996,62.258 -11.738,91.3 -21.754,96.163c-14.496,7.05 -28.229,2.95 -28.246,2.95c-5.192,-5.329 -10.383,-10.642 -15.571,-15.971l0,-0.017l-0.004,-0Z" style="fill:#211e21;"/><path d="M676.788,8626.233c-4.096,5.712 -3.262,5.762 -7.587,11.804c-7.812,10.887 -18.871,13.958 -18.992,14.046c-4.704,-2.362 -10.746,-0.971 -15.45,-3.333c-54.425,-27.342 -24.671,-108.821 11.096,-204.567c18.142,-48.542 114.167,-287.258 165.242,-395.608c2.117,-4.479 23.388,-49.6 31.075,-53.558c33.454,-17.258 69.792,45.521 61.092,85.192c-4.842,22.133 -1.771,23.367 -191.196,482.846c-13.871,33.629 -15.4,32.467 -35.279,63.175l0,0.004Z" style="fill:#211e21;"/><path d="M7990.679,8014.046c8.333,19.496 74.567,162.554 94.2,222.571c1.908,5.85 6.129,18.733 26.963,72.154c5.883,19.567 22.517,57.363 17.45,102.292c-0.554,4.967 -6.946,61.458 -49.6,37.95c-35.033,-19.304 -230.279,-465.121 -228.871,-523.7c1.179,-48.767 52.188,-67.275 74.967,-35.05c22.396,31.7 49.687,92.95 64.879,123.783l0.017,0l-0.004,0Z" style="fill:#211e21;"/><path d="M518.35,8343.925c60.571,-179.463 178.821,-446.996 206.908,-464.029c24.846,-15.071 80.938,2.796 59.512,78.7c-17.137,60.729 -181.563,459.15 -220.138,488.075c-38.696,29.008 -50.137,-14.029 -51.25,-18.246c-6.963,-26.2 3.612,-77.867 4.983,-84.496l-0.017,0l0,-0.004Z" style="fill:#211e21;"/><path d="M7805.296,8601.321c-30.554,-40.383 -28.229,-41.579 -51.283,-86.842c-38.942,-76.425 -107.5,-273.629 -117.708,-313.383c-23.767,-92.483 31.179,-115.642 51.754,-91.337c13.8,16.321 184.271,432.708 190.017,457.138c9.808,41.754 -11.163,90.921 -72.762,34.425l-0.017,0Z" style="fill:#211e21;"/><path d="M820.921,8616.233c-4.288,1.425 -7.137,5.883 -11.425,7.292c-27.363,9.046 -60.121,-7.396 -48.317,-55.033c6.233,-25.192 182.258,-453.246 191.842,-462.117c18.75,-17.379 61.179,2.467 56.217,61.042c-2.812,33.279 -33.854,115.971 -75.433,228.558c-65.258,176.633 -104.271,209.55 -112.867,220.242l-0.017,0.017Z" style="fill:#211e21;"/><path d="M7497.067,8288.092c-1.267,-5.554 -15.8,-68.942 -15.888,-69.342c-7.742,-30.608 -9.425,-30.087 -9.758,-32.812c-0.329,-2.812 -3.492,-29.671 19.375,-29.704c64.479,-0.104 141.892,266.162 149.863,291.579c2.483,22.05 11.321,25.625 -4.792,38.662c-22.5,18.213 -26.562,5.242 -34.825,4.792c-25.575,-24.375 -59.967,-57.533 -103.975,-203.175Z" style="fill:#211e21;"/><path d="M1165.783,8201.65c-30.071,118.679 -61.025,231.596 -134.304,293.821c-4.825,-2.154 -11.025,2.5 -15.833,0.346c-22.55,-10.104 -19.496,-29.392 -19.029,-32.362c1.842,-11.633 70.296,-221.129 94.846,-256.354c3.975,-5.712 54.617,-78.317 78.196,-38.054c2.221,3.8 0.867,15.242 0.712,16.562c-1.025,8.592 -3.592,7.675 -4.583,16.042l-0.004,0Z" style="fill:#211e21;"/></g><g><path d="M6082.742,3620.888c6.529,14.721 59.983,135.175 66.008,190.242c0.367,3.383 3.367,30.746 -29.062,31.196c-8.975,0.121 -83.404,-11.408 -152.637,-39.617c-154.15,-62.796 -319.738,-233.142 -376.892,-310.729c-64.463,-87.517 -189.446,-263.213 -227.621,-480.887c-0.675,-3.888 -7.029,-40.088 -2.742,-49.358c7.9,-17.067 27.412,-13.092 29.95,-12.571c48.283,9.846 117.204,49.617 126.771,55.154c22.467,12.971 134.496,77.621 256.946,197.883c200.971,197.362 290.971,381.283 309.271,418.679l0.017,0l-0.008,0.008Z" style="fill:#211e21;"/><path d="M2508.037,3775.888c1.683,-5.329 2.742,-10.833 4.425,-16.163c123.662,-392.204 495.088,-704.446 672.758,-783.454c23.871,-10.608 73.438,-31.3 91.475,-24.358c45.4,17.45 -44.863,262.604 -95.833,352.763c-60.833,107.588 -135.817,225.504 -273.317,349.392c-131.337,118.35 -235.504,153.054 -258.629,160.762c-129.967,43.317 -137.533,24.912 -141.875,14.358c-10.433,-25.4 -3.508,-26.008 0.954,-53.3l0.042,0Z" style="fill:#211e21;"/></g><g><path d="M5296.596,5703.525c1.596,35.329 4.221,50.904 5.137,225.296c-1.179,303.958 1.475,303.662 8.421,607.446c4.096,179.408 3.367,194.271 -78.317,238.387c-9.271,5 -127.988,61.196 -170.175,38.037c-13.596,-7.467 -32.846,-37.5 -27.242,-84.342c31.579,-264.133 39.288,-672.883 53.821,-852.029c5.45,-67.242 -14.254,-125.071 93.404,-225.954c60.45,-56.65 78.783,-50.729 86.304,-48.3c15.904,5.137 19.775,28.367 20.258,31.3c1.025,6.113 7.725,64.529 8.367,70.158l0.021,0Z" style="fill:#211e21;"/><path d="M3344.95,5703.3c3.279,-37.675 2.779,-101.179 31.963,-103.092c30.867,-2.033 142.637,87.637 164.408,170.033c17.154,64.929 35.867,722.137 58.767,922.762c9.321,81.738 20.279,158.35 -121.217,109.842c-165.85,-56.842 -150.713,-96.721 -150.137,-214.237c0.883,-182.675 5.279,-182.346 9.983,-364.758c3.021,-116.908 -0.104,-116.754 0.713,-381.875c1.738,-69.583 1.842,-69.325 5.521,-138.662l0,-0.017l-0,0.004Z" style="fill:#211e21;"/><path d="M5574.029,4882.933c-11.112,18.454 -10.85,18.471 -12.012,19.929c-2.171,2.708 -25.121,31.425 -41.529,12.779c-17.762,-20.175 -24.304,-356.529 -13.975,-445.867c8.383,-72.5 73.783,-246.162 94.167,-293.696c42.829,-99.896 40.988,-100.575 44.946,-109.15c8.767,-18.975 2.308,-27.654 22.933,-29.408c34.304,-2.9 8.975,50.658 3.333,138.054c-23.383,362.467 1.875,506.787 -97.883,707.363l0.017,0l0.004,-0.004Z" style="fill:#211e21;"/><path d="M3007.933,4662.067c-3.942,-27.637 -17.275,-121.408 -23.838,-348.092c-5.467,-188.958 -11.858,-188.333 -20.762,-242.742c-3.908,-23.925 -10.054,-35.675 14.112,-34.358c13.733,0.746 14.654,1.842 19.912,14.342c14.287,33.992 15.033,33.558 16.146,36.562c34.342,93.904 132.171,296.475 134.096,434.896c3.75,269.479 -8.229,321.842 -10.592,347.554c-0.987,10.746 0.45,48.679 -20.971,50.071c-27.083,1.754 -23.492,-7.9 -35.679,-32.396c-36.962,-74.342 -53.004,-106.633 -72.412,-225.817l-0.017,-0.017l0.004,-0.004Z" style="fill:#211e21;"/><path d="M5425.625,5234.463c-12.429,47.9 -8.071,70.504 -58.871,115.137c-9.133,8.021 -8.783,8.021 -17.883,16.354c-13.179,12.05 -105.488,89.6 -132.117,92.258c-41.787,4.167 -37.675,-65.712 -37.708,-67.483c-3.383,-140.729 6.804,-151.371 15.746,-160.696c28.229,-29.446 121.475,-39.096 217.067,-183.908c29.446,-44.617 24.671,-58.246 47.658,-52.275c18.783,4.879 13.508,29.254 12.917,31.962c-1.842,8.471 -1.996,8.367 -24.671,105.538c-4.392,18.837 -20.383,94.863 -22.117,103.125l-0.017,-0.017l-0.004,0.004Z" style="fill:#211e21;"/><path d="M3245.296,5300.263c-16.058,-47.133 -14.842,-47.221 -31.008,-116.562c-33.317,-142.967 -44.237,-178.958 -26.529,-188.7c24.637,-13.542 29.583,23.942 63.037,69.013c121.075,163.125 200.887,128.071 214.167,187.413c1.146,5.121 8.004,90.625 7.588,104.533c-2.083,68.629 -6.996,79.967 -9.758,86.354c-12.221,28.196 -45.242,31.321 -189.375,-104.583c-10.242,-11.267 -9.567,-11.596 -28.125,-37.467l0.004,-0Z" style="fill:#211e21;"/><path d="M5200.954,4214.15c23.854,-7.621 193.3,-67.725 223.767,-38.108c37.5,36.458 -59.046,109.133 -70.433,118.871c-48.367,41.338 -163.629,106.7 -191.321,119.079c-83.838,37.483 -117.571,-87.867 -110.121,-118.925c7.05,-29.392 24.446,-35 148.108,-80.921l0,0.004Z" style="fill:#211e21;"/><path d="M3323.717,4315.538c-17.588,-13.613 -135.433,-96.042 -99.704,-137.05c37.533,-43.071 295.592,62.5 343.558,83.942c70.154,31.371 3.142,126.408 -4.046,135.05c-36.458,43.925 -74.392,30.054 -239.808,-81.946l0,0.004Z" style="fill:#211e21;"/><path d="M5216.371,4711.804c-6.963,0.8 -35.592,15.175 -57.1,-11.267c-22.933,-28.175 -20.779,-154.096 26.7,-190.488c39.912,-30.592 284.183,-132.292 232.758,-7.708c-6.721,16.283 -84.95,150.746 -202.363,209.446l0,0.017l0.004,0Z" style="fill:#211e21;"/><path d="M3445.888,4714.842c-40.554,-18.575 -57.379,-20.625 -129.688,-97.188c-6.737,-7.137 -51.512,-54.533 -75.279,-96.721c-51.283,-91.025 32.083,-89.617 100.592,-66.2c133.575,45.679 148.767,65.279 159.304,136.858c21.475,145.988 -49.304,122.692 -54.929,123.262l0,-0.017l0,0.004Z" style="fill:#211e21;"/><path d="M5402.867,4832.154c-52.846,88.542 -150.383,211.442 -171.196,222.308c-3.262,1.7 -24.775,4.792 -30.675,-11.787c-7.95,-22.325 -4.583,-190.296 27.621,-229.462c8.613,-10.471 22.083,-28.333 128.613,-79.533c3.958,-1.908 43.125,-20.729 50.696,-20.988c37.933,-1.321 24.496,49.879 23.279,54.462c-7.604,28.925 -17.5,43.196 -28.35,65l0.017,0l-0.004,0Z" style="fill:#211e21;"/><path d="M3275.121,4725.417c143.783,67.1 158.004,77.692 168.142,162.1c9.167,76.371 21.058,167.45 -14.342,168.821c-23.492,0.904 -69.392,-66.388 -107.654,-114.529c-15.521,-19.512 -78.925,-111.579 -92.95,-144.846c-22.362,-53.021 -19.375,-104.117 40.625,-75.383c2.188,1.042 4.008,2.779 6.2,3.821l-0.017,0.017l-0.004,0Z" style="fill:#211e21;"/></g><g><path d="M4103.992,7681.579c-9.046,23.175 -81.179,208.075 -133.854,280.746c-85.208,117.571 -64.654,-172.604 -127.55,-313.471c-48.783,-109.271 -164.046,-315 -219.287,-419.842c-19.479,-36.979 -61.633,-113.075 -67.067,-122.867c-24.671,-44.533 -24.533,-44.183 -52.654,-86.146c-3.35,-5 -17.154,-31.7 -17.083,-32.396c0.675,-6.387 6.717,-11.804 12.45,-14.704c16.354,-8.279 15.608,3.196 125.679,96.146c131.858,111.337 132.013,110.921 255.417,231.425c73.213,71.475 241.058,211.025 256.388,261.3c6.996,22.933 -12.604,68.821 -32.467,119.808l0.033,0l-0.004,0Z" style="fill:#211e21;"/><path d="M4505.033,7595.521c-0.137,-9.029 -2.517,-8.471 -2.658,-17.292c-0.017,-1.425 -0.137,-8.629 2.1,-17.654c11.667,-47.033 213.317,-216.579 258.783,-262.554c19.408,-19.633 123.629,-125 255.992,-231.508c57.758,-46.475 102.658,-93.717 111.283,-94.654c6.892,-0.746 20.988,10.571 21.354,14.983c0.904,10.763 -24.167,46.492 -26.771,50.225c-32.517,46.354 -91.233,162.95 -136.321,244.529c-130.279,235.658 -160.867,304.271 -183.454,350.867c-59.633,123.037 -54.425,292.379 -80.763,340.992c-10.779,19.913 -28.8,12.813 -31.3,11.821c-25.192,-9.929 -120.45,-186.508 -188.246,-389.758l0,0.004Z" style="fill:#211e21;"/><path d="M4382.242,7751.788c-2.708,-111.442 -12.658,-143.333 18.663,-138.558c13.125,1.996 10.625,5.8 15.225,18.404c13.596,37.363 40.104,110.225 206.875,451.825c52.083,106.683 -1.113,149.583 -44.617,260.017c-34.221,86.858 1.492,294.271 -37.012,298.925c-22.988,2.779 -21.058,-4.792 -32.45,-24.742c-67.029,-117.275 -120.8,-603.404 -126.683,-865.867l0,-0.004Z" style="fill:#211e21;"/><path d="M4257.483,7786.217c-20.554,422.067 -90.608,855.138 -151.337,856.562c-16.754,0.4 -21.233,-18.888 -21.788,-21.267c-13.283,-57.188 6.458,-201.771 -25.138,-281.667c-38.471,-97.275 -89.533,-156.946 -47.292,-244.463c15.192,-31.458 188.438,-397.971 200.087,-429.513c1.458,-3.958 17.446,-47.325 19.633,-48.871c1.717,-1.233 24.288,-1.337 25.592,-0.208c10.992,9.55 3.438,12.692 0.242,169.408l0,0.017Z" style="fill:#211e21;"/></g><g><path d="M3692.429,14419.479c2.9,-2.467 17.346,-40.883 66.025,-18.038c110.208,51.737 201.529,332.587 256.008,469.358c6.025,34.15 5.938,33.783 8.438,68.246c-0.4,61.025 -0.571,60.642 -3.454,121.737c-0.537,11.354 -5.675,119.929 -10.208,141.721c-4.15,19.967 -6.058,24.758 -25.921,20.467c-4.079,-0.888 -17.467,-18.942 -18.804,-20.729c-82.446,-111.146 -83.767,-109.929 -90.783,-119.704c-10.192,-14.2 -55,-76.717 -155.679,-153.3c-75.362,-57.325 -77.117,-59.096 -91.787,-111.492c1.754,-18.038 -0.017,-17.933 3.558,-36.404c4.654,-23.975 6.717,-27.396 8.054,-32.846c8.767,-23.229 30.225,-69.287 33.783,-121.754c3.542,-52.379 -0.433,-52.325 6.025,-137.846c11.408,-69.862 14.704,-69.287 14.721,-69.392l0.025,-0.025Z" style="fill:#211e21;"/><path d="M4954.6,14436.217c8.3,51.388 7.05,51.163 9.496,103.179c7.604,107.725 0.329,109.808 39.496,210.242c7.571,33.717 7.429,33.525 9.671,68.142c-0.575,2.396 -0.45,40.729 -38.871,69.896c-24.825,18.837 -106.508,86.146 -115.712,93.717c-46.092,37.967 -96.738,107.013 -152.621,178.229c-14.929,19.029 -16.042,17.987 -28.333,39.096c-12.5,21.442 -12.533,27.013 -36.946,23.646c-9.096,-1.25 -10.954,-21.179 -11.146,-23.229c-1.667,-17.95 -0.329,-17.813 -13.092,-224.929c1.475,-52.604 1.562,-52.308 9.738,-104.479c51.579,-130.262 146.788,-421.908 260.225,-470c55.883,-23.7 66.546,33.487 68.092,36.529l0,-0.033l0.004,-0.004Z" style="fill:#211e21;"/><path d="M4956.683,15440.904c-11.754,-4.758 -35.192,4.425 -56.65,-48.487c-11.979,-29.513 -20.017,-58.021 -25.521,-90.033c-22.692,-132.05 -30.554,-171.963 5.121,-213.388c40.938,-47.533 113.662,-97.117 124.392,-104.446c51.946,-35.417 58.592,-12.133 96.65,37.742c177.883,233.108 177.533,233.246 178.383,234.6c50.713,78.958 70.225,105.329 53.7,128.679c-19.983,28.229 -235.417,56.075 -376.075,55.329l0,0.004Z" style="fill:#211e21;"/><path d="M3568.175,15436.008c-89.287,-9.808 -255.383,-18.75 -265.033,-61.492c-10.346,-45.867 100.992,-164.479 254.896,-377.45c33.508,-46.371 54.238,-40.971 161.546,51.667c83.492,72.067 70.088,92.708 54.567,202.654c-27.812,196.908 -64.808,189.008 -119.567,189.863c-43.387,-2.204 -43.054,-2.467 -86.408,-5.263l0,0.021Z" style="fill:#211e21;"/><path d="M4884.062,14193.021c-0.242,2.325 5.625,26.7 -21.996,62.867c-51.825,67.846 -141.771,245.242 -149.496,266.179c-1.408,3.804 -16.129,43.75 -21.2,46.025c-3.575,1.613 -7.675,-2.05 -11.579,-1.946c-3.662,0.104 -7.604,4.583 -10.675,2.588c-5.296,-3.438 -4.096,-4.929 -6.475,-115.625c-0.521,-24.117 6.717,-133.975 7.238,-137.988c7.692,-59.008 2.1,-76.562 128.142,-160.608c74.217,-49.496 79.096,17.758 86.058,38.508l-0.017,0Z" style="fill:#211e21;"/><path d="M3974.6,14470.625c2.362,78.125 3.942,77.95 1.946,84.408c-0.554,1.804 -19.463,15.575 -24.117,14.217c-10.071,-2.933 -27.238,-60.779 -50.192,-101.283c-48.679,-85.954 -76.425,-150.033 -129.463,-220.783c-41.129,-54.862 0.242,-133.108 53.838,-103.717c0.987,0.537 109.704,71.892 125.033,100.071c24.704,45.383 22.742,142.846 22.933,227.1l0.017,-0.017l0.004,0.004Z" style="fill:#211e21;"/><path d="M3809.029,15355.938c4.392,-70.4 2.517,-70.346 16.7,-139.6c1.042,-5.121 10.971,-53.612 36.771,-54.013c14.479,-0.225 31.737,18.804 33.871,21.163c61.908,68.246 68.092,125.537 69.408,137.812c10.867,100.888 -21.283,103.75 -50.296,108.021c-117.758,17.362 -104.983,-52.554 -106.442,-73.383l-0.017,0l0.004,0Z" style="fill:#211e21;"/><path d="M4831.113,15355.904c-1.771,28.125 2.571,29.392 -11.475,53.558c-19.304,33.229 -121.058,27.988 -139.462,-2.325c-2.05,-3.367 -25.746,-83.075 17.346,-154.792c37.1,-61.754 68.196,-108.629 98.612,-82.55c26.321,22.571 34.167,170.992 34.967,186.112l0.017,0l-0.004,-0.004Z" style="fill:#211e21;"/></g><g><path d="M6030.45,2981.217c131.146,84.862 137.967,117.517 171.562,206.267c61.892,201.667 55.4,317.363 51.908,518.229c-0.054,3.246 -0.367,20.904 -9.775,39.479c-1.875,3.7 -15.779,10.762 -17.846,10c-3.717,-1.371 -3.404,-7.154 -5.538,-10.471c-1.633,-2.533 -4.95,-4.096 -5.696,-7.033c-0.658,-2.571 2.379,-5.104 1.946,-7.725c-0.329,-2.029 -2.829,-1.25 -7.446,-24.533c-24.967,-125.575 -222.658,-527.587 -485.746,-749.287c-35.608,-30 -57.379,-32.654 -58.887,-47.571c-1.825,-17.917 2.204,-19.704 20.175,-20.729c6.979,-0.4 6.371,3.75 86.996,8.767c120.779,7.517 239.392,73.942 258.367,84.567l-0.021,0.042Z" style="fill:#211e21;"/><path d="M2529.529,3050.783c93.804,-81.196 191.842,-146.858 430.888,-162.05c2.725,-0.175 29.271,-1.858 29.167,17.829c-0.087,18.229 -25.8,10.433 -94.008,76.075c-162.517,156.371 -214.654,242.379 -310.904,397.917c-2.762,4.463 -113.108,197.862 -141.804,310.175c-2.692,10.521 -4.463,21.25 -6.737,31.875c-2.758,12.9 -2.708,12.867 -11.842,22.725c-7.117,7.692 -6.946,11.804 -16.042,7.221c-19.671,-9.896 -15.746,-250.85 -15.571,-254.046c14.096,-272.308 83.317,-372.742 105.05,-412.45c21.096,-24.183 20.554,-24.425 31.804,-35.279l-0,0.008Z" style="fill:#211e21;"/></g><g><path d="M4830.954,10860.208c-13.613,-59.688 -31.217,-109.408 -6.163,-153.108c25.346,-44.238 88.888,-50.658 97.692,-51.546c232.467,-23.508 172.221,145.713 137.379,238.212c-54.792,145.45 -82.171,190.104 -91.579,205.433c-17.363,28.3 -12.9,42.867 -45.658,36.562c-12.604,-2.429 -10.521,-5.679 -14.429,-17.742c-21.596,-66.633 -53.071,-131.617 -77.242,-257.812Z" style="fill:#5ea0bc;"/><path d="M3809.479,10859.133c-12.917,53.992 -10.762,75.571 -66.196,226.617c-5.746,15.642 -12.95,52.413 -36.717,51.737c-23.492,-0.675 -38.508,-51.858 -57.762,-84.008c-7.05,-11.788 -16.612,-27.763 -67.812,-157.812c-60.658,-154.133 -27.621,-194.271 -1.338,-216.513c54.133,-45.763 262.933,-46.546 248.662,93.421c-0.713,7.05 -1.717,16.821 -18.854,86.562l0.017,0l0,-0.004Z" style="fill:#5ea0bd;"/><path d="M3396.475,10684.913c51.338,129.217 142.725,286.612 157.604,347.012c30.921,125.521 32.013,128.404 36.058,139.167c8.558,22.796 18.492,26.163 0.988,43.246c-16.633,16.25 -17.692,-1.667 -70.262,-33.7c-105.258,-64.117 -157.654,-78.525 -163.542,-129.983c-5.887,-51.354 3.925,-52.188 -26.025,-261.408c-2.429,-16.962 -7.692,-119.654 -20.192,-190.521c-12.308,-69.742 -8.142,-70.329 -25.263,-138.975c-4.967,-19.913 -12.396,-21.596 0.017,-37.9c1.963,-2.571 26.092,-34.221 38.125,-13.383c1.996,3.454 -0.4,3.542 4.254,49.742c8.542,84.896 60.45,207.067 68.246,226.717l-0.017,-0.017l0.008,0.004Z" style="fill:#5f9fbd;"/><path d="M5323.263,10409.583c5.033,0.608 9.879,-3.679 14.912,-3.075c31.371,3.804 6.25,89.896 1.442,123.004c-17.346,119.496 -19.808,118.925 -31.042,243.575c-3.021,33.421 -20.071,150.071 -24.15,242.396c-3.438,77.813 -22.483,78.871 -64.946,107.987c-27.396,18.783 -95.312,49.913 -128.542,76.058c-62.967,49.529 -43.158,-23.004 -42.1,-26.858c36.667,-134.271 36.058,-168.367 106.075,-292.013c8.783,-15.521 89.479,-184.375 115.625,-263.75c33.558,-101.875 49.671,-190.471 52.742,-207.292l-0.017,-0.033Z" style="fill:#609fbd;"/></g><g><path d="M3292.604,2790.4c98.958,-67.412 265.746,-153.525 289.463,-165.762c137.933,-71.217 301.579,-147.342 228.471,5.467c-30.921,64.654 -227.55,228.767 -260.762,241.842c-44.238,17.412 -216.042,-6.771 -259.446,-17.275c-4.079,-0.988 -54.512,-13.175 -27.988,-44.271c0.05,-0.071 27.846,-18.421 30.279,-20.017l-0.017,0.017Z" style="fill:#211e21;"/><path d="M4850.713,2548.7c18.733,7.083 114.029,38.767 333.108,165.592c11.387,6.596 99.183,57.412 140.367,85.817c53.767,37.067 0.071,51.892 -4.029,53.038c-17.083,4.721 -221.075,41.7 -274.304,15.467c-24.742,-12.188 -231.717,-172.171 -263.7,-255.433c-40.383,-105.121 66.233,-65.05 68.575,-64.479l-0.017,0Z" style="fill:#211e21;"/></g></g></svg>