<svg viewBox="0 0 2013 3842" version="1.1" xmlns="http://www.w3.org/2000/svg" xmlns:xlink="http://www.w3.org/1999/xlink" xml:space="preserve" xmlns:serif="http://www.serif.com/" style="fill-rule: evenodd; clip-rule: evenodd; stroke-linejoin: round; stroke-miterlimit: 2; width: 100%; height: 100%;"><g id="Artboard1"><g id="neck-head"><path d="M891.908,493.096c-7.133,23.754 -4.654,28.533 -9.8,27.75c-1.392,-0.213 -2.429,-1.629 -3.108,-2.867c-0.329,-0.604 0.529,-1.342 0.433,-2.021c-0.092,-0.646 -0.812,-1.075 -0.95,-1.717c-0.312,-1.45 0.217,-6.479 -2.638,-15.975c-15.554,-51.775 -14.308,-64.9 -16.425,-66.4c-0.471,-0.333 -0.754,1.321 -7.129,-1.179c-4.475,-1.754 -3.679,-2.708 -5.879,-6.908c-8.396,-16.021 -17.054,-46.967 -24.254,-71.467c-7.85,-26.713 24.9,-20.621 26.642,-33.479c0.75,-5.546 -8.883,-79.746 14.329,-129.9c9.75,-21.067 16.138,-31.142 28.767,-46.7c1.613,-1.987 26,-33.263 72.879,-43.529c38.638,-8.463 75.629,-3.5 95.842,2.783c10.033,3.121 48.287,13.725 77.504,59.817c34.171,53.904 30.737,101.658 29.179,149.05c-0.512,15.579 8.225,9.983 22.413,20.754c9.758,7.408 2.175,20.971 -4.979,45.762c-11.417,39.571 -15.858,44.608 -18.567,47.675c-4.046,4.587 -9.413,4.017 -10.783,10.658c-1.754,8.488 -1.279,8.517 -3.3,16.875c-6.067,25.067 -6.3,24.933 -13.079,49.842c-0.287,1.05 -1.708,13.192 -3.333,17.067c-1.217,2.9 -2.2,2.146 -4.825,0.463c-2.733,-1.75 -2.463,-6.325 -2.908,-9.329c-0.804,-5.433 -0.996,-5.342 -3.667,-16.8c-12.296,-36.021 -22.775,-70.371 -53.925,-97.183c-23.175,-19.95 -43.367,-17.575 -76.575,-17.512c-45.988,0.087 -67.604,35.779 -80.721,60.129c-2.467,4.579 -7.971,13.5 -21.133,54.342l-0.008,0Z" style="fill:#211d1e;"/><path d="M946.279,481.088c-6.025,52.454 -5.688,53.217 -23.875,83.196c-3.292,5.421 -2.392,6.192 -7.679,9.746c-1.571,1.054 -2.75,3.592 -4.621,3.296c-2.425,-0.383 0.608,-1.783 1.238,-29.388c1.512,-66.529 2.804,-66.833 11.154,-83.583c2.771,-5.562 12.679,-18.583 16.612,-25.225c2.613,-4.408 10.329,-8.583 9.675,4.579c-0.379,7.667 -2.288,34.387 -2.5,37.379l-0.004,0Z" style="fill:#16191e;"/><path d="M1111.904,573.304c-1.954,-0.279 -3.938,0.875 -5.892,0.596c-1.7,-0.246 -2.021,-0.379 -12.125,-17.729c-6.108,-10.483 -16.463,-15.571 -21.521,-112.446c-0.046,-0.867 -0.796,-15.204 7.992,-7.35c0.192,0.171 4.533,7.375 10.071,15.146c18.917,26.562 17.529,34.662 19.054,83.925c0.588,19.012 -0.125,18.979 2.425,37.862l-0.004,-0.004Z" style="fill:#17181f;"/></g><g id="lats"><path d="M1298.138,991.438c30.696,-3.633 30.525,-4.833 33.208,-4.938c0.658,-0.025 5.629,-0.217 7.513,3.404c3.646,7.008 -1.792,57.358 -2.325,62.317c-2.812,26.05 -13.354,65.888 -23.171,91.038c-25.475,65.271 -55.725,105.633 -99.633,183.337c-48.092,85.1 -49.138,138.25 -51.037,141.117c-1.654,2.496 -6.038,1.479 -6.558,1.358c-0.013,-0.004 -14.683,-9.654 -25.667,-20.325c-57.254,-55.638 -80.979,-119.929 -83.317,-125.517c-34.767,-83.179 -28.392,-173.829 -22.171,-182.092c6.213,-8.25 70.463,-53.392 114.221,-93.638c27.454,-25.25 24.592,-28.358 33.35,-33.5c28.05,-16.479 30.146,-10.783 125.583,-22.558l0.004,-0.004Z" style="fill:#211e1f;"/><path d="M975.163,1226.9c-0.879,6.263 -10.083,107.796 -84.792,196.638c-15.946,18.962 -26.725,28.237 -37.85,37.429c-0.946,0.783 -9.846,8.133 -12.875,8.338c-13.425,0.921 4.325,-29.925 -50.908,-133.433c-39.396,-73.825 -89.913,-137.704 -114.483,-221.675c-2.729,-9.329 -19.071,-65.179 -16.542,-120.358c0.029,-0.608 0.25,-5.408 3.446,-6.775c4.321,-1.85 29.958,4.521 69.942,8.163c61.654,5.613 85.142,6.3 103.629,28.254c12.129,14.404 13.579,17.237 81.258,72.642c7.104,5.817 7.633,5.029 14.608,10.921c35.333,29.854 43.1,27.967 44.871,45.192c3.121,30.367 0.396,61.892 -0.296,74.667l-0.008,0Z" style="fill:#211d1f;"/></g><g id="glutes"><path d="M1275.221,1926.854c-8.796,70.254 -20.417,98.404 -20.754,98.829c-0.575,0.717 -5.712,3.358 -7.571,-2.121c-0.229,-0.671 -1.279,-15.571 -15.467,-29.987c-39.375,-40.025 -151.625,-53.808 -203.271,-125.558c-16.821,-23.371 -17.6,-33.496 -17.854,-36.758c-1.871,-24.333 -4.3,-140.187 1.833,-148.721c6.208,-8.642 74.875,-6.817 131.95,10.017c88.758,26.183 127.108,68.171 137.7,121.938c4.842,24.583 -5.446,101.938 -6.571,112.362l0.004,0Z" style="fill:#211e1f;"/><path d="M716.454,1876.929c-2.754,-49.808 -2.646,-53.242 -0.212,-66.179c0.654,-3.483 4.104,-21.854 16.379,-41.146c12.933,-20.325 35.708,-37.004 39.308,-39.646c17.542,-12.846 33.104,-19.342 39.167,-22.292c28.275,-13.763 82.438,-26.413 116.133,-28.917c49.875,-3.704 57.504,1.15 59.358,6.175c2.212,5.987 2.221,57.946 2.221,62.987c0.017,79.542 -1.308,88.346 -4.721,95.213c-23.521,47.263 -62.167,69.725 -81.546,80.592c-43.783,24.55 -102.217,40.279 -130.675,64.675c-23.675,20.3 -17.704,30.342 -22.446,36.258c-2.942,3.675 -4.954,2.246 -5.325,1.983c-5.196,-3.696 -20.175,-66.542 -27.638,-149.708l-0.004,0.004Z" style="fill:#201d1f;"/></g><g id="upper-back"><path d="M670.504,721.267c0.892,-1.529 1.35,-1.1 2.212,-2.579c1.358,-2.329 0.683,-2.571 0.871,-2.7c0.521,-0.354 7.179,-0.75 7.808,-0.787c33.329,-1.971 33.179,-3.475 66.512,-3.421c99.117,0.171 210.296,41.879 228.333,65.879c11.983,15.942 13.792,141.337 9.979,253.621c-0.783,23.117 -4.383,65.1 -4.667,66.7c-0.65,3.688 -0.075,4.421 -3.525,5.842c-4.675,1.925 -4.762,0.571 -9.242,-1.812c-80.45,-42.767 -116.654,-121.346 -155.579,-220.221c-3.279,-8.325 -30.408,-77.238 -47.788,-101.104c-11.263,-15.467 -35.617,-53.167 -80.258,-56.95c-7.446,-0.629 -7.396,-0.454 -14.667,-2.467l0.008,0Z" style="fill:#201d1f;"/><path d="M1335.071,722.392c-21.187,2.321 -21.75,0.304 -41.396,8.696c-13.058,5.579 -31.088,22.562 -31.346,22.842c-70.004,76.129 -77.737,213.142 -168.792,306.275c-27.963,28.6 -50.446,38.763 -57.654,42.95c-12.733,7.392 -11.142,-10.9 -12.163,-21.983c-5.458,-59.404 -6.504,-178.65 -2.321,-250.029c2.496,-42.612 7.246,-50.517 9.517,-54.296c4.858,-8.087 30.375,-20.15 33.242,-21.5c92.3,-43.621 193.212,-46.492 229.721,-42.325c8.996,1.025 40.371,2.458 40.804,3.071c0.65,0.917 -1.158,2.071 -1.092,3.196c0.071,1.146 1.408,1.962 1.479,3.104Z" style="fill:#201d1f;"/></g><g id="hamstrings"><path d="M1127.608,2581.517c1.133,-3.179 5.779,-6.933 8.562,-41.888c3.65,-45.808 -5.867,-45.392 -11.075,-141.617c-5.371,-99.3 -2.146,-161.829 3.479,-245.808c0.95,-14.2 8.092,-80.671 10.633,-96.021c0.792,-4.775 8.688,-52.517 11.45,-59.4c2.312,-5.767 2.267,-5.779 2.4,-5.788c4.292,-0.158 3.192,1.746 4.779,5.717c2.096,5.242 -0.612,5.967 17.75,68.288c2.104,7.15 7.325,29.438 12.671,49.908c0.821,3.15 21.767,87.296 24.954,162.238c1,23.546 4.646,89.346 -15.1,162.487c-17.037,63.1 -58.737,137.338 -58.737,137.338l-3.713,8.592c-2.271,2.263 -8.254,0.3 -9.904,-0.879l1.854,-3.171l-0.004,0.004Z" style="fill:#1e1c1f;"/><path d="M1027.275,2060.413c1.312,-41.846 2.546,-62.908 6.721,-91.833c5.188,-35.95 6.846,-43.608 9.879,-45.458c8.954,-5.458 49.963,23.825 54.967,27.763c17.567,13.829 27.983,18.788 28.342,42.867c1.071,71.767 -19.729,136.433 -30.221,204.012c-12.658,81.571 -13.929,111.413 -14.346,121.167c-2.104,49.446 -2.271,49.367 -2.404,53.663c-2.054,0 -4.108,-0.004 -6.163,-0.004c-3.242,-57.867 4.396,-59.358 -32.5,-195.9c-7.638,-40.138 -12.671,-43.4 -14.283,-116.271l0.008,-0.004Z" style="fill:#1e1c1f;"/><path d="M1257.038,2572.946c0.242,2.688 0.483,5.375 0.725,8.067c1.654,24.971 0.517,38.187 0.517,38.187c0,0 -6.688,-4.183 -7.692,-7.35c-0.987,-3.104 -1.458,-9.933 -1.458,-9.933c0,0 -0.158,-5.546 -0.329,-8.312c-0.058,-0.996 -0.096,-0.917 -1.296,-12.387c-0.275,-2.987 -2.479,-26.775 -4.954,-37.158c-18.587,-77.975 -29.737,-78.442 -23.308,-95.962c1.763,-4.8 10.158,-27.688 13.367,-62.521c13.025,-141.329 -15.188,-273.338 -30.017,-316.992c-15.304,-45.062 -20.767,-45.183 -17.033,-49.712c6.25,-7.575 28.629,12.929 30.638,14.771c12.3,11.271 12.408,11.133 15.158,14.179c20.367,22.529 24.371,30.625 25.633,33.004c7.538,14.213 35.167,111.283 25.988,238.046c-0.508,7.021 -3.988,55.083 -9.354,87.496c-19.967,120.588 -19.85,128.488 -16.583,166.583l0,-0.004Z" style="fill:#1d1b1f;"/><path d="M1087.421,2560.104c-3.975,-31.308 -4.071,-31.325 -3.833,-95.546c0.179,-49.6 7.1,-87.904 13.358,-179.267c2.517,-36.729 2.504,-36.733 2.542,-36.858c0.558,-1.767 2.396,-4.171 2.65,-4.504c0.775,-1.013 1.358,-2.796 2.637,-2.775c3.725,0.054 0.825,47.554 5.396,115.108c6.425,95.008 2.375,184.471 3.283,229.367c-1.717,27.654 -0.15,34.967 -6.367,35.346c-0.638,0.038 -0.796,-1.004 -1.25,-1.458c-2.496,-2.517 -2.292,-2.654 -6.342,-13.867c-0.929,-2.571 -2.571,-7.121 -9.617,-32.804c-0.821,-4.25 -1.637,-8.496 -2.458,-12.746l-0,0.004Z" style="fill:#1a1920;"/><path d="M1299.142,2188.779c-4.317,-20.592 -3.179,-20.837 -9.729,-40.804c-0.729,-2.221 -6.479,-22.846 -11.354,-37.879c-0.879,-2.704 -8.025,-28.175 -8.9,-37.212c-1.333,-13.758 4.258,-23.929 8.937,-45.558c6.017,-27.817 14.413,-57.712 15.808,-62.692c0.346,-1.225 3.887,-13.85 5.5,-14.942c0.438,-0.296 4.883,-0.329 5.237,-0.054c4.217,3.242 6,124.842 1.942,202.471c-0.642,12.229 -0.042,35.067 -1.746,36.404c-0.179,0.142 -0.129,-0.587 -2.8,-0.463c-1.554,0.075 -1.388,0.663 -2.896,0.733l0,-0.004Z" style="fill:#191a1f;"/><path d="M873.863,2579.829c-1.133,-3.179 -5.779,-6.933 -8.562,-41.888c-3.65,-45.808 5.867,-45.392 11.075,-141.617c5.371,-99.3 2.146,-161.829 -3.479,-245.808c-0.95,-14.2 -8.092,-80.671 -10.633,-96.021c-0.792,-4.775 -8.688,-52.517 -11.45,-59.4c-2.312,-5.767 -2.267,-5.779 -2.4,-5.787c-4.292,-0.158 -3.192,1.746 -4.779,5.717c-2.096,5.242 0.612,5.967 -17.75,68.287c-2.104,7.15 -7.325,29.438 -12.671,49.908c-0.821,3.15 -21.767,87.296 -24.954,162.238c-1,23.546 -4.646,89.346 15.1,162.487c17.038,63.1 58.738,137.338 58.738,137.338l3.712,8.592c2.271,2.263 8.254,0.3 9.904,-0.879l-1.854,-3.171l0.004,0.004Z" style="fill:#1e1c1f;"/><path d="M974.196,2058.721c-1.312,-41.846 -2.546,-62.908 -6.721,-91.833c-5.188,-35.95 -6.846,-43.608 -9.879,-45.458c-8.954,-5.458 -49.962,23.825 -54.967,27.763c-17.567,13.829 -27.983,18.787 -28.342,42.867c-1.071,71.767 19.729,136.433 30.221,204.013c12.658,81.571 13.929,111.412 14.346,121.167c2.104,49.446 2.271,49.367 2.404,53.663c2.054,0 4.108,-0.004 6.163,-0.004c3.242,-57.867 -4.396,-59.358 32.5,-195.9c7.637,-40.137 12.671,-43.4 14.283,-116.271l-0.008,-0.004Z" style="fill:#1e1c1f;"/><path d="M744.433,2571.254c-0.242,2.687 -0.483,5.375 -0.725,8.067c-1.654,24.971 -0.517,38.188 -0.517,38.188c0,0 6.688,-4.183 7.692,-7.35c0.987,-3.104 1.458,-9.933 1.458,-9.933c0,0 0.158,-5.546 0.329,-8.312c0.058,-0.996 0.096,-0.917 1.296,-12.387c0.275,-2.987 2.479,-26.775 4.954,-37.158c18.588,-77.975 29.737,-78.442 23.308,-95.962c-1.762,-4.8 -10.158,-27.688 -13.367,-62.521c-13.025,-141.329 15.188,-273.338 30.017,-316.992c15.304,-45.063 20.767,-45.183 17.033,-49.713c-6.25,-7.575 -28.629,12.929 -30.638,14.771c-12.3,11.271 -12.408,11.133 -15.158,14.179c-20.367,22.529 -24.371,30.625 -25.633,33.004c-7.538,14.213 -35.167,111.283 -25.987,238.046c0.508,7.021 3.987,55.083 9.354,87.496c19.967,120.588 19.85,128.487 16.583,166.583l0,-0.004Z" style="fill:#1d1b1f;"/><path d="M914.05,2558.413c3.975,-31.308 4.071,-31.325 3.833,-95.546c-0.179,-49.6 -7.1,-87.904 -13.358,-179.267c-2.517,-36.729 -2.504,-36.733 -2.542,-36.858c-0.558,-1.767 -2.396,-4.171 -2.65,-4.504c-0.775,-1.012 -1.358,-2.796 -2.638,-2.775c-3.725,0.054 -0.825,47.554 -5.396,115.108c-6.425,95.008 -2.375,184.471 -3.283,229.367c1.717,27.654 0.15,34.967 6.367,35.346c0.637,0.037 0.796,-1.004 1.25,-1.458c2.496,-2.517 2.292,-2.654 6.342,-13.867c0.929,-2.571 2.571,-7.121 9.617,-32.804c0.821,-4.25 1.637,-8.496 2.458,-12.746l0,0.004Z" style="fill:#1a1920;"/><path d="M702.329,2187.088c4.317,-20.592 3.179,-20.838 9.729,-40.804c0.729,-2.221 6.479,-22.846 11.354,-37.879c0.879,-2.704 8.025,-28.175 8.9,-37.213c1.333,-13.758 -4.258,-23.929 -8.938,-45.558c-6.017,-27.817 -14.413,-57.713 -15.808,-62.692c-0.346,-1.225 -3.887,-13.85 -5.5,-14.942c-0.437,-0.296 -4.883,-0.329 -5.237,-0.054c-4.217,3.242 -6,124.842 -1.942,202.471c0.642,12.229 0.042,35.067 1.746,36.404c0.179,0.142 0.129,-0.587 2.8,-0.462c1.554,0.075 1.388,0.662 2.896,0.733l0,-0.004Z" style="fill:#191a1f;"/></g><g id="rear-delts"><path d="M1466.258,889.608c-0.688,24.054 -1.767,39.492 -10.683,66.4c-6.342,19.137 -16.392,6.325 -25.821,-2.333c-51.854,-47.625 -153.7,-172.471 -155.812,-177.188c-3.458,-7.733 3.1,-12.217 24.058,-19.983c22.425,-8.308 98.8,-22.242 137.921,28.529c11.417,14.813 24.458,40.542 29.363,79.471c1.317,10.467 0.712,10.458 0.971,25.104l0.004,-0Z" style="fill:#1f1d1f;"/><path d="M553.571,815.163c10.275,-22.725 14.1,-26.408 21.842,-35.283c36.788,-42.163 111.388,-36.917 151.704,-15.358c12.55,6.712 4.321,13.875 1.258,17.721c-36.521,45.817 -58.979,71.667 -64.275,77.758c-5.104,5.875 -39.275,45.204 -65.258,72.133c-31.712,32.863 -36.083,35.667 -42.771,32.696c-3.792,-1.688 -10.504,-23.875 -13.029,-41.804c-9.033,-64.121 9.35,-104.554 10.529,-107.858l0,-0.004Z" style="fill:#1f1d1f;"/></g><g id="calves"><path d="M1154.133,2914.692c-1.167,15.846 -5.2,65.012 -7.242,74.642c-3.929,18.533 -29.292,48.571 -37.95,57.142c-14.821,14.671 -28.237,21.75 -36.333,18.987c-21.696,-7.404 -15.875,-117.642 -14.662,-163.4c0.112,-4 1.058,-37.125 2.571,-49.962c0.867,-7.346 3.883,-28.608 3.883,-28.608l15.433,-63.467c8.467,-25.058 6.667,-25.604 16.329,-50.167c0.588,-1.492 9.925,-27.496 10.346,-28.5c11.388,-27.246 22.183,-62.175 36.162,-88.246c1.679,-3.129 3.237,-7.021 7.887,-16.604c1.954,-4.217 11.621,-23.792 12.646,-25.633c0.367,-0.658 4.433,-7.975 7.713,-5.425c1.967,1.529 2.683,40.588 2.75,44.125c-0.112,68.267 -9.487,199.971 -9.487,199.971l-2.258,53.571c0,0 -4.133,46.862 -7.779,71.571l-0.008,0.004Z" style="fill:#1d1b1f;"/><path d="M1264.754,2906.3c-0.525,1.775 -4.35,17.408 -13.879,41.137c-17.762,44.233 -38.9,80.938 -45.771,91.396c-7.383,11.242 -12.379,7.617 -24.35,-7.208c-12.971,-16.062 -13.667,-22.958 -13.896,-25.254c-0.508,-5.075 4.767,-35.2 11.708,-95.917c0.479,-7.704 0.446,-7.658 0.517,-8.321c4.304,-39.742 5.533,-55.371 5.533,-55.371l3.379,-47.537c0,0 4.342,-63.483 4.187,-109.633c-0.037,-10.629 0.608,-66.954 -1.875,-104.179c-3.254,-41.192 -3.567,-41.204 -2.45,-46.221c2.838,-12.758 16.613,-20.088 18.3,-20.679c13.987,-4.912 10.217,6.033 21.967,66.625c0.375,2.983 0.058,2.958 1.638,13.075c8.954,57.413 11.129,68.963 12.25,74.933l1.088,8.204c4.083,21.25 6.638,50.742 9.087,66.55c5.725,36.925 5.067,36.738 6.462,45.817l0.208,1.196c0,0 6.438,61.321 7.342,69.542c2.542,23.188 1.404,23.471 -1.45,41.842l0.004,0.004Z" style="fill:#1d1b1f;"/><path d="M1124.696,3402.221c5.842,-69.946 19.746,-160.979 26.987,-187.742c8.475,-31.333 9.75,-51.329 17.8,-87.221c8.933,-39.838 14.292,-64.175 32.408,-58.025c12.342,4.188 17.962,52.479 -0.263,103.533c-12.221,34.229 -12.05,34.25 -13.175,37.2c-6.354,16.654 -5.779,16.8 -11.737,33.658c-28.004,79.267 -37.679,176.992 -38.196,183.358c-8.683,107.625 -3.329,109.846 -11.125,117.121c-0.692,0.646 -8.708,8.133 -10.846,-4.708c-0.579,-3.479 1.529,-38.188 1.729,-41.504c5.346,-88.062 5.971,-88.008 6.417,-95.667l-0,-0.004Z" style="fill:#17191e;"/><path d="M1053.804,3143.621c-0.217,-5.346 -1.513,-37.513 1.454,-66.85c0.55,-5.446 0.696,-8.292 5.525,-5.763c5.175,2.708 3.288,4.283 7.546,22.846c12.104,52.754 10.646,59.354 10.417,104.087c-0.392,76.846 10.213,137.825 15.117,224.967c2.433,43.196 6.446,110.808 2.087,115.258c-0.417,0.425 -4.592,0.517 -5.242,0.037c-3.087,-2.287 -1.762,-35.283 -5.475,-102.775c-2.942,-53.529 -5.358,-73.062 -6.142,-79.383c-0.421,-3.658 -2.975,-25.883 -4.746,-45.783c-7.542,-84.808 -16.312,-116.513 -20.542,-166.642Z" style="fill:#1d1b1f;"/><path d="M847.337,2913c1.167,15.846 5.2,65.012 7.242,74.642c3.929,18.533 29.292,48.571 37.95,57.142c14.821,14.671 28.237,21.75 36.333,18.988c21.696,-7.404 15.875,-117.642 14.663,-163.4c-0.112,-4 -1.058,-37.125 -2.571,-49.963c-0.867,-7.346 -3.883,-28.608 -3.883,-28.608l-15.433,-63.467c-8.467,-25.058 -6.667,-25.604 -16.329,-50.167c-0.587,-1.492 -9.925,-27.496 -10.346,-28.5c-11.388,-27.246 -22.183,-62.175 -36.163,-88.246c-1.679,-3.129 -3.237,-7.021 -7.888,-16.604c-1.954,-4.217 -11.621,-23.792 -12.646,-25.633c-0.367,-0.658 -4.433,-7.975 -7.713,-5.425c-1.967,1.529 -2.683,40.588 -2.75,44.125c0.112,68.267 9.487,199.971 9.487,199.971l2.258,53.571c0,0 4.133,46.862 7.779,71.571l0.008,0.004Z" style="fill:#1d1b1f;"/><path d="M736.713,2904.608c0.525,1.775 4.35,17.408 13.879,41.138c17.763,44.233 38.9,80.937 45.771,91.396c7.383,11.242 12.379,7.617 24.35,-7.208c12.971,-16.062 13.667,-22.958 13.896,-25.254c0.508,-5.075 -4.767,-35.2 -11.708,-95.917c-0.479,-7.704 -0.446,-7.658 -0.517,-8.321c-4.304,-39.742 -5.533,-55.371 -5.533,-55.371l-3.379,-47.537c0,0 -4.342,-63.483 -4.188,-109.633c0.037,-10.629 -0.608,-66.954 1.875,-104.179c3.254,-41.192 3.567,-41.204 2.45,-46.221c-2.838,-12.758 -16.612,-20.088 -18.3,-20.679c-13.988,-4.912 -10.217,6.033 -21.967,66.625c-0.375,2.983 -0.058,2.958 -1.637,13.075c-8.954,57.412 -11.129,68.963 -12.25,74.933l-1.087,8.204c-4.083,21.25 -6.637,50.742 -9.088,66.55c-5.725,36.925 -5.067,36.738 -6.462,45.817l-0.208,1.196c0,0 -6.437,61.321 -7.342,69.542c-2.542,23.188 -1.404,23.471 1.45,41.842l-0.004,0.004Z" style="fill:#1d1b1f;"/><path d="M876.775,3400.533c-5.842,-69.946 -19.746,-160.979 -26.987,-187.742c-8.475,-31.333 -9.75,-51.329 -17.8,-87.221c-8.933,-39.838 -14.292,-64.175 -32.408,-58.025c-12.342,4.188 -17.963,52.479 0.262,103.533c12.221,34.229 12.05,34.25 13.175,37.2c6.354,16.654 5.779,16.8 11.738,33.658c28.004,79.267 37.679,176.992 38.196,183.358c8.683,107.625 3.329,109.846 11.125,117.121c0.692,0.646 8.708,8.133 10.846,-4.708c0.579,-3.479 -1.529,-38.188 -1.729,-41.504c-5.346,-88.062 -5.971,-88.008 -6.417,-95.667l-0,-0.004Z" style="fill:#17191e;"/><path d="M947.667,3141.929c0.217,-5.346 1.512,-37.513 -1.454,-66.85c-0.55,-5.446 -0.696,-8.292 -5.525,-5.763c-5.175,2.708 -3.287,4.283 -7.546,22.846c-12.104,52.754 -10.646,59.354 -10.417,104.088c0.392,76.846 -10.212,137.825 -15.117,224.967c-2.433,43.196 -6.446,110.808 -2.087,115.258c0.417,0.425 4.592,0.517 5.242,0.037c3.088,-2.287 1.763,-35.283 5.475,-102.775c2.942,-53.529 5.358,-73.062 6.142,-79.383c0.421,-3.658 2.975,-25.883 4.746,-45.783c7.542,-84.808 16.312,-116.512 20.542,-166.642Z" style="fill:#1d1b1f;"/></g><g id="traps"><path d="M1105.246,586.267c21.171,17.237 31.204,32.892 86.983,72.021c2.737,1.921 27.446,19.254 35.417,22.15c0.492,0.179 5.821,2.112 6.029,2.575c0.367,0.8 -1.075,1.542 -1.062,2.421c0.012,0.821 2.633,2.571 -1.579,3.746c-6.862,1.908 -7.683,-2.908 -87.746,15.088c-45.812,10.296 -94.838,31.567 -95.246,31.654c-9.746,2.067 -8.033,-3.021 -8.508,-12.996c-3.079,-64.571 -10.537,-199.533 -12.208,-216.688c-0.554,-5.708 -4.775,-55.792 -6.383,-66.354c-1.454,-9.546 -3.917,-10.292 -0.096,-14.417c0.604,-0.65 2.858,-3.083 10.104,-4.592c8.213,-1.708 7.458,2.004 8.312,10.408c10.654,104.525 34.042,117.104 46.046,133.4c8.204,11.133 18.183,20.025 19.938,21.588l0,-0.004Z" style="fill:#1e1c20;"/><path d="M787.063,683.046c15.762,-6.467 15.513,-6.946 32.117,-17.808c43.4,-28.392 99.092,-80.046 108.767,-91.446c34.413,-40.554 39.754,-48.925 50.663,-117.304c4.512,-28.275 2.05,-31.517 5.804,-34.875c3.571,-3.196 16.2,2.467 17.112,5.637c1.725,6.025 -2.429,5.921 -7.671,79.004c-10.663,148.642 -11.062,225.029 -13.712,228.483c-3.021,3.933 -7.913,0.142 -31.879,-8.571c-10.046,-3.65 -74.004,-26.896 -129.279,-33.813c-18.263,-2.288 -31.462,-2.712 -32.025,-4.308c-0.079,-0.225 1.337,0.462 1.404,-2.654c0.033,-1.425 -1.329,-0.892 -1.296,-2.35l-0.004,0.004Z" style="fill:#1e1c1f;"/></g><g id="triceps"><path d="M1437.238,1114.646c-2.513,61.95 -21.842,145.229 -13.533,174.846c1.783,6.358 3.729,6.717 1.208,9.796c-4.983,6.092 -6.208,1.388 -10.992,-4.875c-16.563,-21.7 -60.833,-64.087 -62.996,-163.142c-0.754,-34.504 7.321,-80.758 8.533,-87.7c8.142,-46.654 15.608,-74.363 12.021,-99.862c-0.592,-4.217 -1.875,-5.108 1.733,-7.275c2.492,-1.496 2.787,-0.783 4.704,1.404c16.596,18.958 45.487,44.362 56.467,110.254c2.45,14.712 4.271,28.567 2.85,66.558l0.004,-0.004Z" style="fill:#1e1c1f;"/><path d="M645.933,1035.737c5,36.412 26.758,128.096 -17.967,208.471c-17.779,31.95 -19.754,30.533 -32.729,46.771c-0.454,0.567 -0.329,0.638 -5.288,7.375c-4.308,5.858 -8.821,6.804 -8.938,-0.412c-0.108,-6.696 7.771,-7.962 0.988,-70.946c-8.854,-82.254 -38.621,-195.938 37.196,-278.7c10.654,-11.629 11.146,-15.429 15.05,-11.513c3.013,3.025 -2.496,13.271 0.787,36.175c5.1,35.546 9.246,53.754 10.896,62.771l0.004,0.008Z" style="fill:#1e1c1f;"/><path d="M1505.988,1274c-0.946,-0.467 -1.367,2.621 -2.312,2.158c-1.954,-0.963 0.825,-27.471 -10.613,-90.621c-0.979,-5.4 -14.437,-94.154 -37.662,-162.392c-2.171,-6.375 -2.392,-6.233 -4.679,-12.625c-0.504,-1.412 -1.325,-2.758 -1.463,-4.254c-0.046,-0.525 0.892,-0.729 0.967,-1.254c0.096,-0.675 -0.929,-1.458 -0.5,-1.987c0.242,-0.296 5.258,-0.517 5.95,-0.167c0.083,0.042 23.712,34.058 41.421,111.908c4.925,21.658 10.95,44.833 13.629,108.137c1.279,30.229 -0.342,45.813 -0.75,49.775l-3.992,1.317l0.004,0.004Z" style="fill:#0d141e;"/><path d="M501.054,1275.508c-0.85,-1.058 -2.583,-1.129 -3.433,-2.187c-0.758,-0.946 -0.613,-2.354 -1.096,-3.463c-0.238,-0.542 -0.929,-0.854 -1.046,-1.433c-0.717,-3.663 0.533,-45.75 0.65,-49.725c3.654,-122.963 49.354,-208.408 52.237,-212c0.425,-0.529 11.792,-14.587 7.625,3.688c-2.817,12.346 -12.583,20.892 -34.837,133.017c-21.079,106.192 -14.138,116.375 -17.792,126.325c-1.083,2.954 -1.142,2.854 -2.317,5.783l0.008,-0.004Z" style="fill:#0e1722;"/><path d="M1456.196,1109.563l3.771,1.079c2.013,14.575 1.792,14.537 3.783,29.104c0.638,4.667 1.692,4.483 9.087,58.183c4.433,32.196 3.871,66.946 -4.688,74.304c-1.596,1.375 -12.529,10.604 -17.158,-19.963c-4.454,-29.433 -1.15,-80.758 -0.7,-87.767c3.308,-51.363 1.35,-56.683 3.208,-57.254c1.129,-0.346 1.562,2.662 2.692,2.312l0.004,0Z" style="fill:#14171e;"/><path d="M537,1173.129c4.183,-24.171 5.15,-26.996 7.096,-41.804c0.258,-1.963 3.087,-23.525 4.504,-24.312c0.392,-0.221 3.825,1.479 4.258,2.367c2.079,4.263 2.054,8.742 2.054,9.521c-0.262,53.529 7.471,114.879 -1.975,145.95c-4.392,14.45 -14.1,8.392 -15.592,6.546c-13.15,-16.292 -1.383,-89.537 -0.342,-98.263l-0.004,-0.004Z" style="fill:#12181f;"/></g><g id="lower-back"><path d="M974.65,1481.25c-0.079,123.129 -5.046,134.667 -6.679,162.371c-0.037,0.612 -0.421,7.125 -0.754,7.658c-1.921,3.058 -6.158,0.812 -6.629,0.562c-1.05,-0.558 -0.038,-1.454 -9.138,-11.729c-4.504,-5.088 -44.45,-51.125 -48.312,-55.575c-5.088,-5.862 -43.742,-52.221 -47.85,-69.679c-2.971,-12.617 2.392,-14.021 16.608,-30.292c17.796,-20.363 65.213,-87.529 75.483,-103.671c6.542,-10.287 7.371,-9.658 13.096,-20.425c7.175,-13.496 9.321,7.088 9.425,8.075c4.45,42.671 4.771,55.529 4.754,112.704l-0.004,0Z" style="fill:#1f1c1f;"/><path d="M1028.938,1639.383c-5.5,-68.521 -4.679,-68.517 -6.079,-137.3c-1.383,-67.933 3.571,-133.783 5.475,-141.221c0.383,-1.492 5.508,-3.729 6.287,-3.467c0.829,0.279 0.954,1.467 1.471,2.171c1.829,2.504 1.775,6.421 72.054,103.646c7.783,10.771 8.429,10.167 16.613,20.671c5.971,7.667 17.104,16.321 18.108,22.542c4.371,27.146 -93.088,126.525 -101.433,138.875c-3.35,4.958 -2.517,6.175 -6.046,6.646c-5.958,0.796 -5.042,-1.858 -5.846,-7.808c-0.213,-1.583 -0.383,-3.171 -0.596,-4.75l-0.008,-0.004Z" style="fill:#1e1c1e;"/><path d="M1179.888,1464.192c11.925,-40.242 29.138,-76.146 31.725,-76.825c6.279,-1.654 6.771,5.688 6.821,6.433c1.425,21.287 0.804,42.129 0.696,45.792c-2.275,76.892 -1.483,76.838 -1.671,91.642c-0.008,0.817 -0.104,8.342 -6.896,7.562c-6.367,-0.729 -36.95,-24.579 -37.112,-24.75c-7.054,-7.467 -1.238,-21.346 6.438,-49.854Z" style="fill:#19191e;"/><path d="M824.4,1489.221c3.479,18.204 5.621,20.612 -5.833,29.271c-30.371,22.958 -33.363,21.071 -36.138,19.321c-2.983,-1.883 -2.263,-2.804 -2.983,-44.017c-0.146,-8.275 -1.738,-99.562 -0.392,-103.463c0.079,-0.225 2.837,-3.871 5.75,-3.237c5.908,1.288 27.925,55.771 39.592,102.125l0.004,0Z" style="fill:#191a1f;"/></g><g id="middle-back"><path d="M1301.812,963.138c-31.071,5.525 -104.079,16.454 -111.079,12.129c-5.575,-3.446 -2.837,-21.333 12.692,-68.567c8.325,-25.325 36.458,-96.446 53.004,-99.821c2.625,-0.533 10.3,-6.958 58.612,53.188c7.513,9.354 26.729,37.171 27.6,38.562c21.263,33.829 22.871,45.567 8.679,51.617c-16.604,7.083 -45.483,12.183 -49.512,12.896l0.004,-0.004Z" style="fill:#1f1c20;"/><path d="M793.875,975.45c-4.325,-0.45 -4.263,-0.492 -8.638,-0.9c-35.871,-3.367 -89.117,-12.671 -99.55,-15.271c-37.142,-9.254 -38.837,-12.992 -39.517,-19.429c-2.279,-21.604 51.754,-88.55 63.304,-101.121c27.417,-29.842 34.467,-36.987 46.817,-28.358c16.788,11.733 58.104,115.379 62.333,154.229c1.667,15.292 -9.846,11.996 -24.75,10.85Z" style="fill:#1f1c1f;"/></g><g id="hands"><path d="M1764.579,1766.925c2.104,0.379 8.517,-1.975 19.45,11.275c5.833,7.071 4.983,7.625 10.7,14.717c11.354,14.092 10.708,14.487 21.842,28.654c19.767,25.158 32.662,55.717 33.583,60.117c0.458,2.192 1.908,9.125 -16.079,22.921c-21.067,16.158 -19.958,17.446 -29.787,33.767c-3.567,5.921 -22.75,25.738 -40.183,18.829c-16.129,-6.392 -43.612,-77.725 -44.933,-117.629c-2.079,-62.879 3.563,-64.737 11.967,-67.054c16.308,-4.496 30.737,-5.421 33.442,-5.596Z" style="fill:#1f1d1f;"/><path d="M243.842,1767.004c39.933,3.363 40.213,12.204 40.867,14.463c0.825,2.846 7.533,55.421 -2.963,91.592c-1.067,3.679 -15.271,59.283 -33.525,79.292c-15.312,16.788 -41.071,-3.821 -48.808,-17.787c-2.646,-4.775 0.312,-7.446 -32.371,-34.796c-7.471,-6.25 -17.887,-10.713 -3.65,-35.821c3.892,-6.867 10.742,-24.446 38.321,-57.992c7.896,-9.608 22.658,-35.55 33.342,-38.383c0.679,-0.179 0.65,-0.042 8.792,-0.567l-0.004,0Z" style="fill:#1f1d1f;"/><path d="M148.667,1803.404c8.242,-4.4 32.167,-19.062 37.217,-20.367c3.471,-0.896 19.038,1.396 10.563,14.221c-14.392,21.771 -45.208,43.633 -48.7,46.258c-8.113,6.542 -8.188,6.338 -16.054,13.254c-38.413,33.775 -85.921,30.596 -90.121,19.342c-1.408,-3.767 -4.758,-11.067 31.633,-27.658c22.792,-10.392 30.154,-21.071 75.467,-45.046l-0.004,-0.004Z" style="fill:#1a1a1e;"/><path d="M1864.033,1807.204c36.104,19.163 41.379,27.037 59.117,36.117c42.725,21.867 45.083,25.462 40.571,33.279c-6.225,10.779 -43.6,10.675 -73.842,-8.342c-11.321,-7.117 -11.108,-7.304 -21.196,-16.083c-11.117,-9.513 -45.425,-33.558 -58.308,-54.238c-3.446,-5.529 -5.983,-5.925 -2.354,-11.271c6.258,-9.212 22.163,0.983 23.771,2.013c3.829,2.454 24.896,13.954 32.242,18.521l0,0.004Z" style="fill:#191a1e;"/><path d="M127.679,2085.817c-0.771,0.758 -0.996,1.963 -1.767,2.721c-2.55,2.508 -24.312,6.854 -13.525,-27.425c7.15,-22.717 48.592,-124.258 53.742,-128.192c4.6,-3.517 9.287,2.746 9.783,3.408c10.15,13.562 4.517,21.542 2.133,28.542c-5.887,17.271 -30.592,80.521 -50.371,120.946l0.004,0Z" style="fill:#18191c;"/><path d="M1876.325,2081.671c-4.712,-10.454 -54.737,-121.454 -52.1,-133.533c0.767,-3.508 6.65,-15.829 11.292,-16.325c3.812,-0.404 6.004,-0.354 23.617,41.675c40.5,96.637 38.783,101.558 37.225,107.425c-0.304,1.142 -2.837,10.667 -11.175,9.658c-2.113,-0.254 -3.325,-1.242 -3.563,-1.438c-0.567,-0.463 -0.392,-0.55 -5.296,-7.458l0,-0.004Z" style="fill:#18181d;"/><path d="M128.908,1919.604c1.354,-2.483 1.346,-2.4 2.65,-4.858c10.842,-20.5 21.954,-5.9 22.808,0.067c1.638,11.408 -36.858,98.888 -49.142,120.021c-9.075,15.613 -15.771,7.158 -16.592,5.3c-2.675,-6.046 -1.579,-6.254 -1.933,-12.9c1.629,-11.221 1.258,-11.312 12.812,-41.204c12.925,-33.442 13.942,-32.942 29.4,-66.421l-0.004,-0.004Z" style="fill:#16181e;"/><path d="M1868.45,1906.588c0.992,1.575 2.504,2.787 3.496,4.362c4.3,6.825 41.608,80.888 47.479,116.037c-0.483,7.538 0.275,7.675 -1.554,12.221c-0.629,1.562 -6.542,14.817 -19.308,-8.317c-13.075,-23.696 -45.867,-101.125 -46.612,-112.133c-0.408,-6.042 1.917,-9 2.408,-9.625c6.671,-8.483 13.312,-2.708 14.092,-2.546Z" style="fill:#15181d;"/><path d="M171.4,2067.929c-5.704,9.271 -7.525,11.162 -8.338,12.004c-7.908,8.217 -13.621,3.683 -13.675,3.675c-1.163,-2.525 -5.646,-4.467 -0.467,-18.713c1.088,-2.992 19.958,-49.446 21.704,-53.742c1.617,-3.975 17.654,-43.458 21.012,-49.367c0.417,-0.729 3.971,-6.983 10.413,-1.333c6.725,5.896 4.637,15.317 4.337,16.658c-4.917,22.192 -20.042,63.758 -30.642,82.646c-2.275,4.058 -2.283,3.967 -4.354,8.167l0.008,0.004Z" style="fill:#16181c;"/><path d="M1837,2071.975c-1.383,-2.613 -13.492,-25.467 -16.546,-33.05c-24.225,-60.096 -23.183,-71.929 -17.529,-77.713c0.608,-0.621 6.037,-6.175 10.846,-0.158c1.138,1.425 22.9,52.771 31.167,73.938c8.55,21.892 19.008,39.354 12.367,47.162c-6.8,7.992 -14.958,-2.887 -20.3,-10.183l-0.004,0.004Z" style="fill:#16181d;"/><path d="M233.763,2018.096c-7.533,17.925 -8.654,20.963 -15.508,29.383c-0.338,0.304 -4.208,3.779 -4.208,3.779c-5.087,3.371 -8.975,0.608 -10.267,0.338c0.075,-1.229 -0.779,-2.396 -0.704,-3.629c0.263,-4.246 17.021,-55.763 25.004,-65.938c0.883,-1.125 10.421,-13.283 15.487,-8.9c2.058,1.783 0.662,7.533 0.508,8.167c-4.629,19.071 -9.379,33.883 -10.312,36.796l0,0.004Z" style="fill:#10181f;"/><path d="M1769.783,2010.058c-0.771,-2.617 -8.713,-29.617 -8.742,-32.954c-0.008,-1.146 1.529,-11.825 14.2,1.779c8.575,9.204 21.583,44.533 27.471,69.054c-0.862,0.983 -0.658,2.638 -1.525,3.621c-2.275,2.588 -6.95,0.921 -7.517,0.721c-0.658,-0.233 -0.487,-0.421 -6.617,-5.687c-5.375,-7.329 -6.838,-6.662 -17.267,-36.529l-0.004,-0.004Z" style="fill:#0f161f;"/><path d="M1910.15,2068.129c-1.938,-2.679 -3.338,-0.862 -5.283,-3.546c-0.121,-0.167 -2.492,-3.446 1,-2.371c1.913,0.588 2.746,2.975 4.438,4.046c1.296,0.817 3.05,0.688 4.346,1.504l-4.496,0.371l-0.004,-0.004Z" style="fill:#aed9f2;"/></g><g id="forearms\"><path d="M584.008,1390.896c0.537,1.533 4.496,2.475 1.112,11.096c-12.058,30.742 -15.996,32.529 -35.025,65.663c-2.608,4.542 -20.183,32.267 -21.954,35.062c-3.121,4.921 -34.092,53.783 -39.604,61.117c-2.892,3.846 -7.267,11.179 -11.946,17.046c-2.075,2.604 -17.55,25.679 -44.704,59.213c-2.846,3.513 -20.312,25.083 -37.438,42.308c-2.113,2.125 -2.338,1.725 -4.733,3.492l-4.246,-4.65c0.517,-1.221 0.325,-2.667 0.842,-3.888c1.042,-2.454 2.567,-1.692 14.75,-29.883c23.012,-53.25 29.104,-76.558 69.921,-162.938c33.971,-71.896 47.479,-72.383 52.042,-73.496c9.783,-2.383 13.883,3.375 46.212,-12.125c5.838,-2.8 7.567,-4.229 8.142,-4.504c1.888,-0.892 2.046,-0.25 3.925,-1.242c1.604,-0.85 1.096,-1.417 2.7,-2.267l0.004,-0.004Z" style="fill:#1c1b1f;"/><path d="M1422.767,1393.683c1.479,0.05 4.888,-1.883 11.708,1.967c1.421,0.8 9.283,5.238 18.262,9.017c26.275,11.046 32.904,-2.263 50.1,17.633c24.025,27.792 64.204,124.979 69.921,138.192c2.308,5.338 16.275,37.629 27.812,67.179c6.504,16.658 6.942,16.4 13.7,32.883c4.808,11.721 13.604,20.8 8.221,23.725c-1.021,0.554 -2.437,-0.154 -3.458,0.4c-2.375,-2.037 -2.804,-1.417 -8.721,-7.471c-20.158,-20.621 -36.079,-40.942 -39.004,-44.675c-21.646,-27.621 -21.021,-28.025 -47.079,-64.658c-45.15,-67.508 -83.121,-131.683 -88.404,-140.996c-8.663,-14.213 -11.513,-22.875 -12.208,-24.992c-1.775,-5.396 -0.571,-5.508 -0.846,-8.2l-0.004,-0.004Z" style="fill:#1c1b1f;"/><path d="M1665.167,1692.6c-4,-4.554 -6.883,-10.463 -13.317,-19.513c-93.608,-131.7 -93.467,-268.612 -97.267,-291.804c-0.25,-1.517 -2.683,-16.392 -0.533,-19.217c0.454,-0.596 4.113,-4.746 7.05,6.162c11.562,42.95 79.237,161.017 101.312,266.758c5.254,25.162 3.704,25.362 7.837,50.708c0.442,2.704 1.933,3.358 -0.421,4.671c-1.504,0.842 -3.158,1.396 -4.663,2.237l0,-0.004Z" style="fill:#1b1b1e;"/><path d="M416.562,1444.517c33.283,-69.25 31.942,-77.992 32.542,-79.225c0.471,-0.971 1.875,-1.15 2.55,-1.987c0.463,-0.575 0.071,-1.771 0.738,-2.092c5.35,-2.592 3.742,10.75 3.625,11.725c-5.487,45.542 -4.679,70.167 -18.708,125.442c-28.667,112.962 -76.162,167 -88.304,188.117c-2.55,4.433 -1.383,6.283 -5.458,6.354c-6.804,0.117 -3.017,-13.875 -2.471,-19.829c7.633,-83.054 61.192,-194.75 75.483,-228.5l0.004,-0.004Z" style="fill:#1a1a1e;"/><path d="M424.642,1337.142c0.621,0.875 1.783,1.258 2.404,2.133c0.563,0.792 0.496,1.917 1.042,2.721c0.862,1.263 2.95,1.175 1.646,5.658c-1.196,4.108 -53.967,110.708 -107.233,346.008c-5.146,22.721 -11.342,61.658 -17.446,64.842c-7.363,3.833 -33.879,-5.058 -25.95,-30.812c0.183,-0.6 34.617,-102.683 67.933,-192.596c18.538,-50.025 19.229,-56.642 59.596,-157.833c1.742,-4.362 1.962,-4.2 4.967,-12.112c3.696,-8.679 11.967,-25.775 13.042,-28l0,-0.008Z" style="fill:#141920;"/><path d="M1581.892,1334.533c7.375,12.117 7.742,11.871 8.271,12.983c0.5,1.062 0.783,2.225 1.342,3.254c5.167,9.513 4.721,9.688 13.642,30.962c2.479,6.638 2.442,6.604 2.675,7.167c4.667,11.208 15.225,36.558 53.4,142.071c23.325,64.475 23.738,64.267 46.217,129.017c25.617,73.792 25.396,74.096 24.783,79.7c-1.475,13.496 -22.288,25.396 -30.042,16.483c-4.975,-5.721 -18.987,-94.225 -49.596,-200.062c-38.646,-133.629 -59.638,-178.513 -70.8,-204.233c-2.004,-4.621 -1.067,-6.15 0.108,-17.346l0,0.004Z" style="fill:#14181e;"/></g><g id="glutes"><path d="M906.75,1618.321c0.517,0.633 5.429,6.658 5.517,8.567c0.221,4.833 -0.662,5.133 -5.362,6.233c-12.433,2.913 -105.95,18.312 -151.479,76.658c-13.462,17.254 -11.45,29.279 -15.938,29.554c-8.025,0.496 -2.808,-15.054 0.913,-41.283c8.971,-63.254 35.604,-111.671 61.358,-117.958c47.083,-11.496 89.062,19.708 103.054,35.742c0.692,0.792 1.246,1.696 1.938,2.487Z" style="fill:#1d1b20;"/><path d="M1246.5,1652.525c11.358,36.15 10.421,52.179 15.117,74.667c0.275,1.321 2.383,7.042 0.396,9.571c-3.021,3.846 -5.283,4.229 -6.617,-0.479c-1.054,-3.721 -6.408,-22.633 -25.846,-40.867c-27.454,-25.754 -63.462,-39.925 -69.521,-42.312c-22.117,-8.704 -56.583,-17.888 -66.013,-19.179c-18.946,-2.588 -4.092,-14.087 3.808,-23.596c9.487,-11.417 58.863,-43.312 100.225,-29.479c29.246,9.779 46.4,65.067 48.45,71.675Z" style="fill:#1d1c20;"/></g><g id="feet"><path d="M1086,3726.083c-1.779,-2.333 -11.367,-5.612 -7.167,-44.646c2.946,-27.383 9.817,-57.683 10.942,-62.646c1.513,-6.671 4.729,-27.829 5.346,-28.229c0.867,-0.571 1.929,0.979 2.967,0.946c1.008,-0.033 1.971,-1.713 2.8,-1.142c3.225,2.221 -4.517,8.621 10.737,65.562c10.387,38.775 16.446,48.667 23.867,49.071c19.846,1.083 32.046,-32.742 27,-82.2c-1.721,-16.875 -2.171,-16.742 -5.975,-33.225c-0.225,-0.979 -3.671,-15.917 3.633,-12.012c0.762,0.408 0.537,1.667 1.012,2.392c0.883,1.35 1.7,0.933 4.142,9.15c12.217,41.092 54.571,130.012 33.042,139.071c-1.521,0.642 -3.275,0.583 -4.796,1.221c-39.429,4.554 -50,4.837 -79.054,3.292c-8.812,-0.471 -21.517,-3.117 -25.246,-4.725c-1.146,-0.492 -2.096,-1.383 -3.246,-1.875l-0.004,-0.004Z" style="fill:#191b20;"/><path d="M915.471,3724.396c1.779,-2.333 11.367,-5.612 7.167,-44.646c-2.946,-27.383 -9.817,-57.683 -10.942,-62.646c-1.512,-6.671 -4.729,-27.829 -5.346,-28.229c-0.867,-0.571 -1.929,0.979 -2.967,0.946c-1.008,-0.033 -1.971,-1.712 -2.8,-1.142c-3.225,2.221 4.517,8.621 -10.738,65.563c-10.387,38.775 -16.446,48.667 -23.867,49.071c-19.846,1.083 -32.046,-32.742 -27,-82.2c1.721,-16.875 2.171,-16.742 5.975,-33.225c0.225,-0.979 3.671,-15.917 -3.633,-12.013c-0.763,0.408 -0.538,1.667 -1.013,2.392c-0.883,1.35 -1.7,0.933 -4.142,9.15c-12.217,41.092 -54.571,130.012 -33.042,139.071c1.521,0.642 3.275,0.583 4.796,1.221c39.429,4.554 50,4.837 79.054,3.292c8.813,-0.471 21.517,-3.117 25.246,-4.725c1.146,-0.492 2.096,-1.383 3.246,-1.875l0.004,-0.004Z" style="fill:#191b20;"/></g><path d="M1521.246,1389.688c0.133,15.204 1.196,15.537 -0.846,18.196c-4.233,5.504 -5.679,0.025 -18.946,-13.546c-20.617,-21.083 -23.354,-22.996 -46.287,-53.921c-34.321,-46.279 17.388,-44.996 29.554,-37.233c18.767,11.975 27.4,40.983 28.617,45.079c6.033,20.275 5.55,20.367 7.908,41.421l-0,0.004Z" style="fill:#5d9ebd;"/><path d="M566.196,1314.646c-0.35,1.9 1.467,9.388 -17.242,34.104c-24.537,32.417 -42.738,46.879 -49.6,54.817c-3.129,3.621 -2.467,4.333 -5.933,5.871c-5.738,2.55 -5.562,-6.396 -5.55,-7.117c0.658,-33.717 11.279,-62.204 13.2,-67.346c1.804,-4.838 13.925,-28.775 29.642,-34.304c9.842,-3.463 19.571,-0.537 21.717,0.008c15.313,3.908 12.629,9.704 13.763,13.967l0.004,0Z" style="fill:#5d9ebc;"/></g></svg>